<svg version="1.2" xmlns="http://www.w3.org/2000/svg" viewBox="0 0 842 595" width="842" height="595">
	<defs>
		<clipPath clipPathUnits="userSpaceOnUse" id="cp1">
			<path d="m785.04 135.89c-2.65-9.54-30.54-28.14-44.33-36.86-0.38 0.34-0.88 0.56-1.43 0.56q-0.4 0-0.74-0.14-0.01 0-0.02 0-0.01 0-0.04-0.02-0.03-0.01-0.06-0.02c-0.15-0.07-0.41-0.18-0.44-0.2-6.56-3.06-12.33-6.58-17.31-9.95-5.23-3.53-9.61-6.89-13.08-9.36-2.3-1.64-4.23-2.88-5.58-3.48-0.76-0.35-1.32-0.46-1.54-0.45-0.89-0.01-2.34 0.29-4.04 0.86-1.7 0.57-3.67 1.39-5.74 2.34-4.14 1.9-8.7 4.29-12.73 6.17-1.94 0.91-3.76 1.26-5.42 1.26-1.91-0.01-3.54-0.43-5.04-0.78-1.52-0.36-2.92-0.67-4.52-0.67-0.95-0.01-2.49 0.3-4.35 0.96-1.87 0.66-4.09 1.65-6.54 2.92-4.91 2.54-10.78 6.18-16.99 10.45-5.71 3.93-11.96 9.49-16.95 14.28-2.79 2.68-5.19 5.11-6.91 6.89 13.56-0.03 27.2 1.51 39.98 6.24 5.41 2.08 10.79 4.51 14.56 9.32 0.68 0.94 0.51 1.91-0.04 2.58 2.28 2.47 5.34 6.61 7.6 12.82 4.09 11.23 45.68-2.95 45.68-2.95 0 0 69.56-0.06 66.02-12.77z"/>
		</clipPath>
		<radialGradient id="g1" cx="0" cy="0" r="1" gradientUnits="userSpaceOnUse" gradientTransform="matrix(65.629,52.846,-52.846,65.629,684.118,100.085)">
			<stop offset="0" stop-color="#6cbf66" stop-opacity="1"/>
			<stop offset=".95" stop-color="#6cbf66" stop-opacity="0"/>
		</radialGradient>
		<radialGradient id="g2" cx="0" cy="0" r="1" gradientUnits="userSpaceOnUse" gradientTransform="matrix(89.815,79.99,-79.99,89.815,136.917,302.445)">
			<stop offset="0" stop-color="#02c0f2" stop-opacity="1"/>
			<stop offset=".95" stop-color="#02c0f2" stop-opacity="0"/>
		</radialGradient>
		<radialGradient id="g3" cx="0" cy="0" r="1" gradientUnits="userSpaceOnUse" gradientTransform="matrix(69.279,29.692,-29.692,69.279,153.472,275.511)">
			<stop offset=".2" stop-color="#02c0f2" stop-opacity="1"/>
			<stop offset=".95" stop-color="#02c0f2" stop-opacity="0"/>
		</radialGradient>
		<linearGradient id="g4" x2="1" gradientUnits="userSpaceOnUse" gradientTransform="matrix(0,-37.734,54.523,0,182.43,305.563)">
			<stop offset=".5" stop-color="#02c0f2" stop-opacity="1"/>
			<stop offset=".95" stop-color="#02c0f2" stop-opacity="0"/>
		</linearGradient>
		<clipPath clipPathUnits="userSpaceOnUse" id="cp2">
			<path d="m827.93 323.97c0.14 0.94-0.38 1.97-1.69 2.1-9.73 0.53-19.63 0.99-29.31-0.62-7.95-1.43-15.84-3.6-23.59-5.85-1.32-0.43-2.59-0.54-3.94-0.35l-4.64 0.94c-4.81 0.94-9.55 1.8-14.47 2.3-3.34 0.37-7 0.32-10.28-0.73-2.7-0.72-4.9-2.41-7.49-2.89-1.66 0-3.35 0.7-5.11 1.19-4.47 1.44-8.98 3.16-13.2 5.16-1.2 0.59-2.54 1.25-3.6 2.03 1.98 2.11 5.82 3.58 8.63 3.71 3.04-0.08 6.31-0.35 9.48-0.59l9.59-0.8q0.57-0.04 1.05 0.21c2.85 1.45 5.76 2.87 8.66 4.2 2.13 0.96 4.31 1.97 6.48 2.66 0.74 0.22 0.95 0.26 1.67 0.18 2.97-0.36 6-1.66 9.08-2.45 0.69-0.18 1.69-0.39 2.49-0.27 2.84 0.52 5.3 1.8 7.92 2.75 1.48 0.57 2.98 1.14 4.36 1.5 1.21 0.3 3.15 0.28 4.54 0.48 6.69 0.67 22.15 2.69 28.98 3.53 1.09 0.11 1.87 1.09 1.73 2.18-0.1 1-1.04 1.56-1.73 2.08-2.32 1.58-4.95 2.64-7.58 3.51-7.2 2.3-14.85 2.99-22.28 4.03-1.11 0.12-2.9 0.35-3.98 0.42-0.23 0.02-0.55 0.04-0.87 0.02l-19.21-1.7-8.11 0.81c-1.76 0.1-3.74 0.47-5.59 0.26-3.76-0.49-7.66-1.33-11.33-1.85-0.43-0.09-1.13-0.12-1.36-0.14-0.68 0.28-1.34 0.69-1.98 1.14 6.39 3.52 12.82 7.06 19.23 10.36 1.78 0.93 3.48 1.25 5.43 1.65 3.59 0.73 7.35 1.13 10.93 2.16 4.96 2.08 10.19 3.76 14.82 6.65 0.37 0.25 1 0.81 1.29 1.38 0.25 0.47 0.32 1.02 0.32 1.51-0.42 4.72-1.51 9.01-4.14 13.02-0.67 0.92-1.69 1.84-2.87 2.11-2.62 0.59-5.08 0.33-7.66 0.31-5.97-0.25-11.9-0.77-17.84-1.36l-2.05 1.93-1.37 1.28c-3.27 3.23-8.13 4.56-12.61 3.86-0.63 0.58-1.51 1.54-2.05 2.19 0.11 0.59 0.25 1.31 0.31 1.71 0.96 6.42 2.05 13.29-0.1 19.62-1.3 3.51-3.09 6.49-5.08 9.52-2.18 3.11-2.46 7.41-0.62 10.75 1.12 2.24 2.54 4.4 3 7.05 1.83 8.65-2.87 17.02-11.76 18.82-2.65 0.61-5.3 0.28-7.94 0.01-2.6-0.07-5.17 0.98-7.13 2.74l-1.41 1.23-2.84 2.45c-0.78 0.64-1.65 0.64-2.34 0.27-20.49 19.13-33.2 38.82-38.12 47.17q-0.08 0.12-0.15 0.25l183.39 28.89v-226.95z"/>
		</clipPath>
		<radialGradient id="g5" cx="0" cy="0" r="1" gradientUnits="userSpaceOnUse" gradientTransform="matrix(-5.255,149.774,-149.774,-5.255,724.261,326.356)">
			<stop offset="0" stop-color="#6cbf66" stop-opacity="1"/>
			<stop offset=".95" stop-color="#6cbf66" stop-opacity="0"/>
		</radialGradient>
		<linearGradient id="g6" x2="1" gradientUnits="userSpaceOnUse" gradientTransform="matrix(58.309,186.418,-261.74,81.868,721.921,309.934)">
			<stop offset=".05" stop-color="#02c0f2" stop-opacity="0"/>
			<stop offset=".3" stop-color="#02c0f2" stop-opacity="1"/>
			<stop offset=".8" stop-color="#02c0f2" stop-opacity="0"/>
		</linearGradient>
		<radialGradient id="g7" cx="0" cy="0" r="1" gradientUnits="userSpaceOnUse" gradientTransform="matrix(-122.689,37.733,-37.733,-122.689,688.376,429.412)">
			<stop offset="0" stop-color="#02c0f2" stop-opacity="1"/>
			<stop offset=".95" stop-color="#02c0f2" stop-opacity="0"/>
		</radialGradient>
		<radialGradient id="g8" cx="0" cy="0" r="1" gradientUnits="userSpaceOnUse" gradientTransform="matrix(-103.491,19.798,-19.798,-103.491,604.052,104.716)">
			<stop offset=".3" stop-color="#b8d988" stop-opacity="1"/>
			<stop offset=".9" stop-color="#b8d988" stop-opacity="0"/>
		</radialGradient>
		<radialGradient id="g9" cx="0" cy="0" r="1" gradientUnits="userSpaceOnUse" gradientTransform="matrix(78.166,-22.827,22.827,78.166,521.233,130.189)">
			<stop offset="0" stop-color="#b8d988" stop-opacity="1"/>
			<stop offset=".9" stop-color="#b8d988" stop-opacity="0"/>
		</radialGradient>
		<radialGradient id="g10" cx="0" cy="0" r="1" gradientUnits="userSpaceOnUse" gradientTransform="matrix(-0.331,.185,-0.185,-0.331,661.382,331.821)">
			<stop offset=".2" stop-color="#02c0f2" stop-opacity="1"/>
			<stop offset=".9" stop-color="#02c0f2" stop-opacity="0"/>
		</radialGradient>
		<linearGradient id="g11" x2="1" gradientUnits="userSpaceOnUse" gradientTransform="matrix(44.625,9.485,-2.536,11.929,653.243,327.403)">
			<stop offset=".1" stop-color="#b3b3b3" stop-opacity="0"/>
			<stop offset=".8" stop-color="#b3b3b3" stop-opacity="1"/>
		</linearGradient>
		<radialGradient id="g12" cx="0" cy="0" r="1" gradientUnits="userSpaceOnUse" gradientTransform="matrix(47.785,-5.22,5.22,47.785,191.777,236.134)">
			<stop offset=".3" stop-color="#89c664" stop-opacity="1"/>
			<stop offset=".9" stop-color="#89c664" stop-opacity="0"/>
		</radialGradient>
		<linearGradient id="g13" x2="1" gradientUnits="userSpaceOnUse" gradientTransform="matrix(205.553,0,0,36.042,30.412,214.903)">
			<stop offset=".1" stop-color="#bbbdbf" stop-opacity="0"/>
			<stop offset=".5" stop-color="#bbbdbf" stop-opacity="1"/>
			<stop offset="1" stop-color="#bbbdbf" stop-opacity="0"/>
		</linearGradient>
		<radialGradient id="g14" cx="0" cy="0" r="1" gradientUnits="userSpaceOnUse" gradientTransform="matrix(-31.852,8.461,-8.461,-31.852,43.643,158.964)">
			<stop offset="0" stop-color="#bbbdbf" stop-opacity="1"/>
			<stop offset=".9" stop-color="#bbbdbf" stop-opacity="0"/>
		</radialGradient>
		<radialGradient id="g15" cx="0" cy="0" r="1" gradientUnits="userSpaceOnUse" gradientTransform="matrix(-62.116,60.872,-60.872,-62.116,618.334,133.573)">
			<stop offset=".3" stop-color="#bbbdbf" stop-opacity="1"/>
			<stop offset=".9" stop-color="#bbbdbf" stop-opacity="0"/>
		</radialGradient>
		<linearGradient id="g16" x2="1" gradientUnits="userSpaceOnUse" gradientTransform="matrix(89.129,0,0,33.081,139.811,232.179)">
			<stop offset=".7" stop-color="#fff9c1" stop-opacity="1"/>
			<stop offset=".8" stop-color="#fff9c1" stop-opacity="0"/>
		</linearGradient>
		<linearGradient id="g17" x2="1" gradientUnits="userSpaceOnUse" gradientTransform="matrix(0,-17.43,29.862,0,208.922,265.26)">
			<stop offset=".05" stop-color="#fff9c1" stop-opacity="0"/>
			<stop offset=".5" stop-color="#fff9c1" stop-opacity="1"/>
			<stop offset=".95" stop-color="#fff9c1" stop-opacity="0"/>
		</linearGradient>
	</defs>
	<style>
		.s0 { fill: url(#g1) } 
		.s1 { fill: url(#g2) } 
		.s2 { fill: url(#g3) } 
		.s3 { fill: url(#g4) } 
		.s4 { fill: url(#g5) } 
		.s5 { fill: url(#g6) } 
		.s6 { fill: url(#g7) } 
		.s7 { fill: #bbbdbf } 
		.s8 { fill: url(#g8) } 
		.s9 { fill: url(#g9) } 
		.s10 { fill: #000000 } 
		.s11 { fill: url(#g10) } 
		.s12 { fill: url(#g11) } 
		.s13 { fill: url(#g12) } 
		.s14 { fill: url(#g13) } 
		.s15 { fill: url(#g14) } 
		.s16 { fill: url(#g15) } 
		.s17 { fill: #fff9c1 } 
		.s18 { fill: url(#g16) } 
		.s19 { fill: url(#g17) } 
		.s20 { fill: #0089ce } 
		.s21 { fill: #feca07 } 
		.s22 { fill: #bed62f } 
		.s23 { fill: #fefefe } 
		.s24 { fill: #ec1c24 } 
		.s25 { fill: #aae0f9 } 
	</style>
	<g id="レイヤー 2">
		<g id="&lt;Group&gt;">
			<g id="&lt;Group&gt;">
				<g id="&lt;Clip Group&gt;" clip-path="url(#cp1)">
				</g>
			</g>
			<path id="&lt;Path&gt;" class="s0" d="m785.04 135.89c-2.65-9.54-30.54-28.14-44.33-36.86-0.38 0.34-0.88 0.56-1.43 0.56q-0.4 0-0.74-0.14-0.01 0-0.02 0-0.01 0-0.04-0.02-0.03-0.01-0.06-0.02c-0.15-0.07-0.41-0.18-0.44-0.2-6.56-3.06-12.33-6.58-17.31-9.95-5.23-3.53-9.61-6.89-13.08-9.36-2.3-1.64-4.23-2.88-5.58-3.48-0.76-0.35-1.32-0.46-1.54-0.45-0.89-0.01-2.34 0.29-4.04 0.86-1.7 0.57-3.67 1.39-5.74 2.34-4.14 1.9-8.7 4.29-12.73 6.17-1.94 0.91-3.76 1.26-5.42 1.26-1.91-0.01-3.54-0.43-5.04-0.78-1.52-0.36-2.92-0.67-4.52-0.67-0.95-0.01-2.49 0.3-4.35 0.96-1.87 0.66-4.09 1.65-6.54 2.92-4.91 2.54-10.78 6.18-16.99 10.45-5.71 3.93-11.96 9.49-16.95 14.28-2.79 2.68-5.19 5.11-6.91 6.89 13.56-0.03 27.2 1.51 39.98 6.24 5.41 2.08 10.79 4.51 14.56 9.32 0.68 0.94 0.51 1.91-0.04 2.58 2.28 2.47 5.34 6.61 7.6 12.82 4.09 11.23 45.68-2.95 45.68-2.95 0 0 69.56-0.06 66.02-12.77z"/>
			<g id="&lt;Group&gt;">
				<path id="&lt;Path&gt;" class="s1" d="m198.08 264.61h-0.23-24.28l-10.34-1.63 6.22-7-3.76-3.73-44.94-2.58-22.88-7.7-53.77 7.66-2.23 0.37c3.93 34.39 35.71 89.22 66.77 115.14 0.33 0 15.12-26.16 15.45-26.16 18.43-0.01 50.29-12.73 74.55-30.05 14.51-10.35 26.31-22.34 30.9-34.24 3.58-9.28-31.46-10.08-31.46-10.08z"/>
				<path id="&lt;Path&gt;" class="s2" d="m198.08 264.61h-0.23-24.28l-10.34-1.63 6.22-7-3.76-3.73-44.94-2.58-22.88-7.7-53.77 7.66-2.23 0.37c3.93 34.39 35.71 89.22 66.77 115.14 0.33 0 15.12-26.16 15.45-26.16 18.43-0.01 50.29-12.73 74.55-30.05 14.51-10.35 26.31-22.34 30.9-34.24 3.58-9.28-31.46-10.08-31.46-10.08z"/>
			</g>
			<path id="&lt;Path&gt;" class="s3" d="m198.08 264.61h-0.23c-29.95 0.03-31.87 11.17-32.11 17.73-0.29 8.3 30.98 18.56 32.9 26.59 14.51-10.35 26.31-22.34 30.9-34.24 3.58-9.28-31.46-10.08-31.46-10.08z"/>
			<g id="&lt;Group&gt;">
				<g id="&lt;Clip Group&gt;" clip-path="url(#cp2)">
				</g>
			</g>
			<path id="&lt;Path&gt;" class="s4" d="m827.93 323.97c0.14 0.94-0.38 1.97-1.69 2.1-9.73 0.53-19.63 0.99-29.31-0.62-7.95-1.43-15.84-3.6-23.59-5.85-1.32-0.43-2.59-0.54-3.94-0.35l-4.64 0.94c-4.81 0.94-9.55 1.8-14.47 2.3-3.34 0.37-7 0.32-10.28-0.73-2.7-0.72-4.9-2.41-7.49-2.89-1.66 0-3.35 0.7-5.11 1.19-4.47 1.44-8.98 3.16-13.2 5.16-1.2 0.59-2.54 1.25-3.6 2.03 1.98 2.11 5.82 3.58 8.63 3.71 3.04-0.08 6.31-0.35 9.48-0.59l9.59-0.8q0.57-0.04 1.05 0.21c2.85 1.45 5.76 2.87 8.66 4.2 2.13 0.96 4.31 1.97 6.48 2.66 0.74 0.22 0.95 0.26 1.67 0.18 2.97-0.36 6-1.66 9.08-2.45 0.69-0.18 1.69-0.39 2.49-0.27 2.84 0.52 5.3 1.8 7.92 2.75 1.48 0.57 2.98 1.14 4.36 1.5 1.21 0.3 3.15 0.28 4.54 0.48 6.69 0.67 22.15 2.69 28.98 3.53 1.09 0.11 1.87 1.09 1.73 2.18-0.1 1-1.04 1.56-1.73 2.08-2.32 1.58-4.95 2.64-7.58 3.51-7.2 2.3-14.85 2.99-22.28 4.03-1.11 0.12-2.9 0.35-3.98 0.42-0.23 0.02-0.55 0.04-0.87 0.02l-19.21-1.7-8.11 0.81c-1.76 0.1-3.74 0.47-5.59 0.26-3.76-0.49-7.66-1.33-11.33-1.85-0.43-0.09-1.13-0.12-1.36-0.14-0.68 0.28-1.34 0.69-1.98 1.14 6.39 3.52 12.82 7.06 19.23 10.36 1.78 0.93 3.48 1.25 5.43 1.65 3.59 0.73 7.35 1.13 10.93 2.16 4.96 2.08 10.19 3.76 14.82 6.65 0.37 0.25 1 0.81 1.29 1.38 0.25 0.47 0.32 1.02 0.32 1.51-0.42 4.72-1.51 9.01-4.14 13.02-0.67 0.92-1.69 1.84-2.87 2.11-2.62 0.59-5.08 0.33-7.66 0.31-5.97-0.25-11.9-0.77-17.84-1.36l-2.05 1.93-1.37 1.28c-3.27 3.23-8.13 4.56-12.61 3.86-0.63 0.58-1.51 1.54-2.05 2.19 0.11 0.59 0.25 1.31 0.31 1.71 0.96 6.42 2.05 13.29-0.1 19.62-1.3 3.51-3.09 6.49-5.08 9.52-2.18 3.11-2.46 7.41-0.62 10.75 1.12 2.24 2.54 4.4 3 7.05 1.83 8.65-2.87 17.02-11.76 18.82-2.65 0.61-5.3 0.28-7.94 0.01-2.6-0.07-5.17 0.98-7.13 2.74l-1.41 1.23-2.84 2.45c-0.78 0.64-1.65 0.64-2.34 0.27-20.49 19.13-33.2 38.82-38.12 47.17q-0.08 0.12-0.15 0.25l183.39 28.89v-226.95z"/>
			<g id="&lt;Group&gt;">
				<path id="&lt;Compound Path&gt;" class="s5" d="m781.79 342.5c-5.16-0.25-9.65-3.37-14.49-4.54-1.86 0.19-3.7 1.03-5.66 1.56-1.99 0.57-4.41 1.35-6.7 1.18-3.08-0.57-5.74-1.99-8.53-3.2q-4.2-1.94-8.3-4.03c-5.71 0.52-13.26 1.12-18.85 1.33-4 0.02-13.09-3.44-12.79-8.14 0.11-0.89 0.75-1.61 1.39-2.15h-34.02c-0.98 0-1.78-0.79-1.78-1.77q0.01-0.06 0.02-0.11h-161.05v176.92l147.47 22.05q0.07-0.05 0.15-0.09c4.92-8.35 17.63-28.04 38.12-47.17-0.58-0.78-1.43-2.57-0.44-3.48 1.87-1.54 4-3.64 5.95-4.99 2.71-1.82 6.1-2.73 9.41-2.38 1.93 0.28 3.97 0.43 5.88 0 6.99-1.48 9.88-7.72 8.42-14.35-0.4-1.43-1.5-3.5-2.28-4.97-2.58-4.42-2.58-10.17 0.05-14.57 2.5-3.97 5.35-8.04 5.97-12.71 0.65-5.63-0.35-11.4-1.28-16.97-0.05-0.4 0.07-0.91 0.25-1.26 1.13-1.78 2.25-2.86 3.82-4.25 0.61-0.53 1.48-0.82 2.3-0.61 3.45 0.69 7.19-0.2 9.69-2.69l1.37-1.28 2.73-2.57c0.45-0.43 1.05-0.61 1.63-0.55 8.01 0.71 16.42 1.8 24.41 1.39 0.37-0.03 0.35-0.07 0.61-0.11l0.05-0.04 0.24-0.2c0.09-0.06 0.21-0.25 0.32-0.38 1.89-2.59 2.94-7.5 3.32-10.15-1.87-1.27-4.29-2.19-6.52-3.16-2.26-0.9-4.73-1.99-7.05-2.88-4.47-1.25-9.15-1.56-13.68-2.8-1.06-0.27-2.35-0.79-3.26-1.27-7.5-3.86-14.72-7.89-22.03-11.92-1.23-0.62-1.41-2.4-0.35-3.27 2.03-1.58 4.25-3.86 7.04-3.96 4.69 0.35 9.17 1.69 13.78 2.07 2.65-0.12 9.51-0.87 12.28-1.12q0.19-0.02 0.38-0.01l19.28 1.73 0.36-0.02c1.06-0.09 2.73-0.26 3.78-0.39 7.86-1.21 16.36-1.64 23.78-4.68-8.25-1.05-18.95-2.53-25.19-3.04z"/>
				<path id="&lt;Compound Path&gt;" class="s6" d="m781.79 342.5c-5.16-0.25-9.65-3.37-14.49-4.54-1.86 0.19-3.7 1.03-5.66 1.56-1.99 0.57-4.41 1.35-6.7 1.18-3.08-0.57-5.74-1.99-8.53-3.2q-4.2-1.94-8.3-4.03c-5.71 0.52-13.26 1.12-18.85 1.33-4 0.02-13.09-3.44-12.79-8.14 0.11-0.89 0.75-1.61 1.39-2.15h-34.02c-0.98 0-1.78-0.79-1.78-1.77q0.01-0.06 0.02-0.11h-161.05v176.92l147.47 22.05q0.07-0.05 0.15-0.09c4.92-8.35 17.63-28.04 38.12-47.17-0.58-0.78-1.43-2.57-0.44-3.48 1.87-1.54 4-3.64 5.95-4.99 2.71-1.82 6.1-2.73 9.41-2.38 1.93 0.28 3.97 0.43 5.88 0 6.99-1.48 9.88-7.72 8.42-14.35-0.4-1.43-1.5-3.5-2.28-4.97-2.58-4.42-2.58-10.17 0.05-14.57 2.5-3.97 5.35-8.04 5.97-12.71 0.65-5.63-0.35-11.4-1.28-16.97-0.05-0.4 0.07-0.91 0.25-1.26 1.13-1.78 2.25-2.86 3.82-4.25 0.61-0.53 1.48-0.82 2.3-0.61 3.45 0.69 7.19-0.2 9.69-2.69l1.37-1.28 2.73-2.57c0.45-0.43 1.05-0.61 1.63-0.55 8.01 0.71 16.42 1.8 24.41 1.39 0.37-0.03 0.35-0.07 0.61-0.11l0.05-0.04 0.24-0.2c0.09-0.06 0.21-0.25 0.32-0.38 1.89-2.59 2.94-7.5 3.32-10.15-1.87-1.27-4.29-2.19-6.52-3.16-2.26-0.9-4.73-1.99-7.05-2.88-4.47-1.25-9.15-1.56-13.68-2.8-1.06-0.27-2.35-0.79-3.26-1.27-7.5-3.86-14.72-7.89-22.03-11.92-1.23-0.62-1.41-2.4-0.35-3.27 2.03-1.58 4.25-3.86 7.04-3.96 4.69 0.35 9.17 1.69 13.78 2.07 2.65-0.12 9.51-0.87 12.28-1.12q0.19-0.02 0.38-0.01l19.28 1.73 0.36-0.02c1.06-0.09 2.73-0.26 3.78-0.39 7.86-1.21 16.36-1.64 23.78-4.68-8.25-1.05-18.95-2.53-25.19-3.04z"/>
			</g>
			<path id="&lt;Path&gt;" class="s7" d="m626.51 377.3q0.46-0.22 0.94-0.22h20.9c1.18 0 2.13 0.95 2.13 2.13q-0.01 0.5-0.21 0.92l-3.83 7.9h3.91c1.66-0.05 2.72 1.98 1.76 3.32l-7.02 10.37 7.52 20.47 17.46 4.05c1.14 0.27 1.86 1.41 1.59 2.55q-0.13 0.55-0.49 0.94l-8.29 9.26c-0.48 0.53-1.18 0.77-1.84 0.69l-11.96-1.47-2.15 3.32 3.15 19.56 47.39-40-1.91-24.3c-0.05-0.71 0.26-1.38 0.77-1.81l5.97-4.92c0.4-0.32 0.88-0.48 1.35-0.48h9.11l16.65-15.75-18.7-9.64-34.36-0.15c-1.33 0.04-2.2-1.55-1.5-2.66l3.57-5.92c0.33-0.54 0.9-0.84 1.49-0.84l11.61-0.03c1.43 0.05 3.15 0.03 4.22-1.07 0.56-0.49 0.89-1.19 1.19-1.85l0.03-0.07-32.92 0.09-1.68 2.44-0.14 0.21-0.01 0.01 0.04 0.08 7.34-0.01c1.44-0.04 2.42 1.63 1.69 2.86l-3.53 6.39c-0.35 0.64-1.01 1-1.69 1l-61.97-0.78q-0.05 0-0.76 0c-4.39-0.01-29.06-4.02-31.72 0.85-2.87 3.29 2.18 6.94 0.5 10.77-1.68 3.84 1.23 7.84 0.75 11.87 0.03-0.01 13.95 0 20.18 0 6.5-0.01 13.11-0.02 13.11-0.02z"/>
			<g id="&lt;Group&gt;">
				<g id="&lt;Group&gt;">
					<path id="&lt;Path&gt;" class="s8" d="m549.57 174.9c1.86-3.18 3.98-5.91 6.39-8.63 12.67-14.34 30.31-21.41 49.12-22.81 7.26-0.73 14.57-0.81 21.72-0.95 3.35-0.17 6.82 0.05 9.92-1.23 4.19-1.85 3.26-3.69-0.34-5.39-6.09-2.89-19.86-5.37-29.42-6.81-5.15-0.78-9.08-1.26-9.94-1.34-6.56-0.73-13.14-1.25-19.68-1.3l-3.68 0.18c-0.58 0.03-1.14-0.18-1.57-0.58-0.42-0.41-0.66-0.96-0.66-1.54q0.01-0.61 0.03-1.2c0.13-4.71 1.01-8.71 2.56-11.95 1.67-3.5 4.16-6.12 7.18-7.62 2.01-0.99 4.24-1.49 6.54-1.49 2.29 0 4.5 0.47 6.5 1.41 2.01 0.93 3.79 2.34 5.26 4.15 2.57 3.2 4.14 7.59 4.48 13.01q0.69-0.03 1.37-0.05l-0.03-0.03c0.01-0.01 0.6-0.66 1.64-1.75 1.55-1.64 4.11-4.28 7.25-7.32 2.98-2.9 6.48-6.14 10.13-9.22-3.51-0.28-8.21-0.74-12.6-1.45q-2.51-0.41-4.78-0.94-1.56-0.36-2.92-0.79c-3.14-1.02-6.76-2.48-9.62-3.68-2.64-1.12-4.6-2.01-4.89-2.14q-0.62-0.26-1.28-0.26-0.43 0-0.85 0.11l-12.25 3.18q-0.95 0.25-1.91 0.25c-1.63 0-3.23-0.53-4.56-1.52l-4.39-3.3c-0.58-0.43-1.29-0.67-2.01-0.67h-2.63c-1.23 0-2.45-0.3-3.55-0.88l-4.36-2.31q-0.75-0.39-1.57-0.39c-0.71 0-1.41 0.23-2 0.67-1.35 1.01-2.95 1.51-4.55 1.51-1.64 0-3.28-0.53-4.65-1.58l-6.03-4.67c-0.6-0.46-1.32-0.7-2.05-0.7q-0.64 0-1.25 0.25l-5.51 2.22-1.15 0.44q-0.32 0.11-0.68 0.12c-0.96 0-1.76-0.65-2.02-1.53l-43.25 15.34 28.64 76.69h43.33q0.01-0.49 0.28-1.03 0.14-0.24 0.29-0.48z"/>
					<path id="&lt;Path&gt;" class="s9" d="m549.57 174.9c1.86-3.18 3.98-5.91 6.39-8.63 12.67-14.34 30.31-21.41 49.12-22.81 7.26-0.73 14.57-0.81 21.72-0.95 3.35-0.17 6.82 0.05 9.92-1.23 4.19-1.85 3.26-3.69-0.34-5.39-6.09-2.89-19.86-5.37-29.42-6.81-5.15-0.78-9.08-1.26-9.94-1.34-6.56-0.73-13.14-1.25-19.68-1.3l-3.68 0.18c-0.58 0.03-1.14-0.18-1.57-0.58-0.42-0.41-0.66-0.96-0.66-1.54q0.01-0.61 0.03-1.2c0.13-4.71 1.01-8.71 2.56-11.95 1.67-3.5 4.16-6.12 7.18-7.62 2.01-0.99 4.24-1.49 6.54-1.49 2.29 0 4.5 0.47 6.5 1.41 2.01 0.93 3.79 2.34 5.26 4.15 2.57 3.2 4.14 7.59 4.48 13.01q0.69-0.03 1.37-0.05l-0.03-0.03c0.01-0.01 0.6-0.66 1.64-1.75 1.55-1.64 4.11-4.28 7.25-7.32 2.98-2.9 6.48-6.14 10.13-9.22-3.51-0.28-8.21-0.74-12.6-1.45q-2.51-0.41-4.78-0.94-1.56-0.36-2.92-0.79c-3.14-1.02-6.76-2.48-9.62-3.68-2.64-1.12-4.6-2.01-4.89-2.14q-0.62-0.26-1.28-0.26-0.43 0-0.85 0.11l-12.25 3.18q-0.95 0.25-1.91 0.25c-1.63 0-3.23-0.53-4.56-1.52l-4.39-3.3c-0.58-0.43-1.29-0.67-2.01-0.67h-2.63c-1.23 0-2.45-0.3-3.55-0.88l-4.36-2.31q-0.75-0.39-1.57-0.39c-0.71 0-1.41 0.23-2 0.67-1.35 1.01-2.95 1.51-4.55 1.51-1.64 0-3.28-0.53-4.65-1.58l-6.03-4.67c-0.6-0.46-1.32-0.7-2.05-0.7q-0.64 0-1.25 0.25l-5.51 2.22-1.15 0.44q-0.32 0.11-0.68 0.12c-0.96 0-1.76-0.65-2.02-1.53l-43.25 15.34 28.64 76.69h43.33q0.01-0.49 0.28-1.03 0.14-0.24 0.29-0.48z"/>
				</g>
				<path id="&lt;Compound Path&gt;" class="s10" d="m740.13 95.53q-0.01-0.01-0.02-0.02c-9.9-4.58-18.04-10.31-24.44-14.99-3.27-2.38-6.08-4.49-8.51-6.06-1.21-0.78-2.33-1.44-3.41-1.92-1.08-0.48-2.12-0.82-3.28-0.82q-0.43 0.01-0.87 0.05c-1.42 0.13-2.91 0.5-4.52 1.03-2.89 0.97-6.13 2.46-9.41 4.04-3.28 1.59-6.59 3.28-9.51 4.64-1.44 0.67-2.54 0.86-3.62 0.87-1.24 0-2.51-0.3-4.06-0.67-1.54-0.37-3.35-0.78-5.5-0.78-1.75 0-3.63 0.46-5.77 1.2q-2.18 0.78-4.69 1.97l-8.26-6.08c-1.83-1.35-4.04-2.07-6.3-2.07h-7.57q-1.19 0-2.3-0.43l-7.87-3.05c-1.23-0.48-2.53-0.72-3.85-0.72h-5.01q-1.35-0.01-2.59-0.55l-1.81-0.81-9.75-4.33c-1.37-0.61-2.84-0.92-4.31-0.92q-1.36 0-2.68 0.34l-5.33 1.39c-2.31 0.6-4.35 1.96-5.79 3.86l-4.21 5.54q-0.68 0.89-1.61 1.49l-5.26 3.42-8.9 5.76q-0.54-0.07-1.03-0.32l-4.37-2.31c-1.11-0.59-2.33-0.88-3.55-0.88-1.6 0-3.21 0.51-4.55 1.51-0.59 0.45-1.29 0.67-2 0.67-0.73 0-1.44-0.23-2.05-0.7l-4.83-3.73-1.21-0.93c-1.35-1.05-2.99-1.59-4.64-1.59q-1.45 0-2.84 0.55l-5.27 2.13c0 0-1.41 0.58-1.55 0.66-0.62 0.37-1.04 1.04-1.04 1.82q0 0.31 0.09 0.59c0.26 0.88 1.06 1.53 2.02 1.53q0.36-0.01 0.68-0.12l1.15-0.44 5.51-2.22q0.61-0.25 1.25-0.25c0.73 0 1.45 0.24 2.05 0.7l6.03 4.67c1.37 1.05 3.01 1.58 4.65 1.58 1.6 0 3.2-0.5 4.55-1.51 0.59-0.44 1.29-0.67 2-0.67q0.82 0 1.57 0.39l4.36 2.31c1.1 0.58 2.32 0.88 3.55 0.88h2.63c0.72 0 1.43 0.24 2.01 0.67l4.39 3.3c1.33 0.99 2.93 1.52 4.56 1.52q0.96 0 1.91-0.25l12.25-3.18q0.42-0.11 0.85-0.11 0.66 0 1.28 0.26c0.29 0.13 2.25 1.02 4.89 2.14 2.86 1.2 6.48 2.66 9.62 3.68q1.36 0.43 2.92 0.79 2.27 0.53 4.78 0.94c4.39 0.71 9.09 1.17 12.6 1.45-3.65 3.08-7.15 6.32-10.13 9.22-3.14 3.04-5.7 5.68-7.25 7.32-1.04 1.09-1.63 1.74-1.64 1.75l0.03 0.03q-0.68 0.02-1.37 0.05c-0.34-5.42-1.91-9.81-4.48-13.01-1.47-1.81-3.25-3.22-5.26-4.15-2-0.94-4.21-1.41-6.5-1.41-2.3 0-4.53 0.5-6.54 1.49-3.02 1.5-5.51 4.12-7.18 7.62-1.55 3.24-2.43 7.24-2.56 11.95q-0.02 0.59-0.03 1.2c0 0.58 0.24 1.13 0.66 1.54 0.43 0.4 0.99 0.61 1.57 0.58l3.68-0.18c6.54 0.05 13.12 0.57 19.68 1.3 0.86 0.08 4.79 0.56 9.94 1.34 9.56 1.44 23.33 3.92 29.42 6.81 3.6 1.7 4.53 3.54 0.34 5.39-3.1 1.28-6.57 1.06-9.92 1.23-7.15 0.14-14.46 0.22-21.72 0.95-18.81 1.4-36.45 8.47-49.12 22.81-2.41 2.72-4.53 5.45-6.39 8.63q-0.15 0.24-0.29 0.48-0.27 0.54-0.28 1.03c-0.01 0.55 0.22 1.04 0.57 1.41 0.89 0.92 2.59 1.09 3.43-0.38q0.28-0.51 0.6-1.03c0.66-1.1 1.44-2.23 2.23-3.29 11.96-16.13 29.95-24.1 49.65-25.59 7.08-0.73 14.18-0.82 21.43-0.98 3.78-0.18 7.77-0.03 11.37-1.57 4.47-1.73 6.62-5.7 4.42-9.09q-0.78-1.25-2.37-2.33c-3.33-2.24-7.01-3.12-10.7-4.1-3.55-0.89-7.1-1.65-10.67-2.34q-5.99-1.1-12-1.99-1.54-0.24-3.08-0.46 1.54-0.05 3.08-0.08 5.78-0.13 11.54 0.15c6.78 0.28 17.03 1.54 26.19 4.26 5.69 1.7 10.96 3.95 14.71 6.89q1.71 1.32 2.95 2.84c0.96 1.29 2.45 1.05 3.28 0.2q0.06-0.07 0.11-0.14c0.55-0.67 0.72-1.64 0.04-2.58-3.77-4.81-9.15-7.24-14.56-9.32q-3.23-1.19-6.53-2.12c-10.84-3.08-22.17-4.14-33.45-4.12 1.72-1.78 4.12-4.21 6.91-6.89 4.99-4.79 11.24-10.35 16.95-14.28 3.33-2.29 6.55-4.39 9.59-6.25 2.63-1.6 5.12-3.02 7.4-4.2 2.45-1.27 4.67-2.26 6.54-2.92 1.86-0.66 3.4-0.97 4.35-0.96 1.6 0 3 0.31 4.52 0.67 1.5 0.35 3.13 0.77 5.04 0.78 1.66 0 3.48-0.35 5.42-1.26 4.03-1.88 8.59-4.27 12.73-6.17 2.07-0.95 4.04-1.77 5.74-2.34 1.7-0.57 3.15-0.87 4.04-0.86 0.22-0.01 0.78 0.1 1.54 0.45 1.35 0.6 3.28 1.84 5.58 3.48 3.47 2.47 7.85 5.83 13.08 9.36 4.98 3.37 10.75 6.89 17.31 9.95 0.03 0.02 0.29 0.13 0.44 0.2q0.03 0.01 0.06 0.02 0.03 0.02 0.04 0.02 0.01 0 0.02 0 0.34 0.14 0.74 0.14c0.55 0 1.05-0.22 1.43-0.56 0.42-0.39 0.69-0.94 0.69-1.56 0-0.87-0.52-1.61-1.27-1.94z"/>
			</g>
			<path id="&lt;Path&gt;" class="s11" d="m661 331.71q0.24 0.24 0.47 0.38-0.08-0.16-0.12-0.33-0.15-0.05-0.35-0.05z"/>
			<path id="&lt;Path&gt;" class="s12" d="m670.39 337.81h0.24l16.72 1.11 10.08-2.72-12.64-2.45-15.41-1.65-6.04 0.98c-0.58 0.09-1.13-0.11-1.52-0.49-2.72-0.11-4.99 1.03-6.81 2.67-1.08 0.97-2 2.12-2.77 3.28l2.74 0.39z"/>
			<path id="&lt;Path&gt;" class="s13" d="m242.44 255.76l-53.62-12.46-23.08-9.34 1.32-3.49c0 0 72.14-13.01 81.63-11.42 3.35 0.56 7.1 38.75-6.25 36.71z"/>
			<path id="&lt;Path&gt;" class="s14" d="m35.68 250.95l197.36-30.76 2.92-5.29-205.55 24.4z"/>
			<path id="&lt;Path&gt;" class="s15" d="m15.98 159.71c12.5-1.54 33.64-1.48 33.64-1.48 0 0-8.61 0.73-29.49 20.75-5.55 5.31-17.63 6.09-17.63-9.48 0-10.07 6.95-8.98 13.48-9.79z"/>
			<path id="&lt;Path&gt;" class="s16" d="m673.34 151.61c0 0-1.88-6.14-7.71-12.68-0.83 0.85-2.32 1.09-3.28-0.2-7.95-9.78-31.59-13.49-43.85-13.99-4.86-0.24-9.72-0.23-14.62-0.07q7.56 1.05 15.08 2.45c3.57 0.69 7.12 1.45 10.67 2.34 3.69 0.98 7.37 1.86 10.7 4.1 5.48 3.67 3.5 9.28-2.05 11.42-3.6 1.54-7.59 1.39-11.37 1.57-7.25 0.16-14.35 0.25-21.43 0.98-19.7 1.49-37.69 9.46-49.65 25.59-1.04 1.4-2.06 2.92-2.83 4.32-0.84 1.47-2.54 1.3-3.43 0.38l-13.6 45.02z"/>
			<path id="&lt;Path&gt;" class="s17" d="m120.75 247.25v-8.06l-18.62 3c5.89 2.35 12.24 3.97 18.62 5.06z"/>
			<path id="&lt;Path&gt;" class="s18" d="m227.07 247.83c-0.21 0.95-11.38 0.98-12.4 0.98q-1.45 0-2.77-0.03c-4.51-0.11-7.9-0.46-10.58-0.95-1 0.67-2.2 1.06-3.49 1.06h-3.82c-2.88 0-5.3-1.94-6.05-4.57q-1.41-0.28-2.59-0.75c-1.02-0.39-1.93-0.85-2.84-1.33-1.83-0.94-3.7-1.96-6.85-2.93q-1.38-0.43-3.13-0.83-0.01 0-0.03 0.01h-2.9c-1.44 0-2.77-0.58-3.73-1.51-0.96-0.94-1.57-2.26-1.57-3.71v-1.09l-24.51 3.94v13.16c3.16 0.17 6.2 0.28 9.02 0.34 4.93 0.13 9.23 0.15 12.56 0.3 1.91 0.09 3.5 0.21 4.8 0.45 0.7 0.14 1.32 0.29 1.94 0.57 0.31 0.15 0.64 0.33 0.96 0.62q0.99 0.86 1.56 1.89c0.39 0.69 0.6 1.47 0.6 2.24 0 0.85-0.25 1.62-0.6 2.25-0.35 0.64-0.78 1.15-1.23 1.61-0.91 0.91-1.92 1.61-2.76 2.22q-0.24 0.16-0.45 0.32 0.59 0.18 1.44 0.37c0.98 0.22 2.59 0.34 4.53 0.33 2.54 0 5.67-0.17 9.01-0.34 3.34-0.18 6.89-0.35 10.35-0.35 2.41 0 4.78 0.08 7 0.32q0.28 0.04 0.54 0.15c0.82 0.32 1.37 1.13 1.34 2.04 1.73-0.42 20.24 1.66 22.75 0 5.77-3.82 7.48-13.97 3.9-16.78z"/>
			<path id="&lt;Path&gt;" class="s19" d="m227.07 247.83c-0.21 0.95-11.38 0.98-12.4 0.98-0.97 0-8.35-0.39-9.23-0.41-4.71 4.48-3.56 8.68-6.36 14.17 0.82 0.32 1.37 1.13 1.34 2.04 1.73-0.42 20.24 1.66 22.75 0 5.77-3.82 7.48-13.97 3.9-16.78z"/>
			<path id="&lt;Compound Path&gt;" fill-rule="evenodd" class="s10" d="m228.34 221.87l-26.77 4.31v7.98q0.87 0.63 1.48 1.52c0.68 1.01 1.08 2.23 1.08 3.53v3.38q0 0.7-0.15 1.36 0.26 0.04 0.54 0.07c2.59 0.33 5.86 0.54 10.15 0.54 1.18 0 2.13 0.95 2.13 2.13q-0.01 0.24-0.06 0.46c-0.21 0.95-1.05 1.66-2.07 1.66-5.95 0-10.14-0.4-13.35-0.98-1 0.67-2.2 1.06-3.49 1.06h-3.82c-2.88 0-5.3-1.94-6.05-4.57q-1.41-0.28-2.59-0.75c-1.02-0.39-1.93-0.85-2.84-1.33-1.83-0.94-3.7-1.96-6.85-2.93q-1.38-0.43-3.13-0.83-0.01 0-0.03 0.01h-2.9c-1.44 0-2.77-0.58-3.73-1.51-0.96-0.94-1.57-2.26-1.57-3.71v-1.09l-24.51 3.94v13.16c3.16 0.17 6.2 0.28 9.02 0.34 4.93 0.13 9.23 0.15 12.56 0.3 1.91 0.09 3.5 0.21 4.8 0.45 0.7 0.14 1.32 0.29 1.94 0.57 0.31 0.15 0.64 0.33 0.96 0.62q0.99 0.86 1.56 1.89c0.39 0.69 0.6 1.47 0.6 2.24 0 0.85-0.25 1.62-0.6 2.25-0.35 0.64-0.78 1.15-1.23 1.61-0.91 0.91-1.92 1.61-2.76 2.22q-0.24 0.16-0.45 0.32 0.59 0.18 1.44 0.37c0.98 0.22 2.59 0.34 4.53 0.33 2.54 0 5.67-0.17 9.01-0.34 3.34-0.18 6.89-0.35 10.35-0.35 2.41 0 4.78 0.08 7 0.32 1.11 0.13 1.92 1.09 1.88 2.19q0.01 0.08 0 0.16c-0.12 1.17-1.17 2.01-2.34 1.88-2.01-0.22-4.23-0.3-6.54-0.3-3.31 0-6.8 0.17-10.13 0.34-3.34 0.18-6.51 0.35-9.23 0.36-2.09-0.01-3.9-0.1-5.45-0.44-1.05-0.23-1.92-0.47-2.66-0.74-0.73-0.28-1.35-0.57-1.92-1.04-0.38-0.32-0.76-0.75-0.98-1.33q-0.2-0.5-0.2-1.04c0-0.55 0.16-1.03 0.34-1.4q0.29-0.54 0.63-0.9c0.44-0.49 0.91-0.86 1.39-1.23 0.97-0.72 2.01-1.41 2.74-2.06 0.48-0.42 0.79-0.82 0.88-1.02 0.05-0.12 0.05-0.15 0.05-0.16 0-0.02 0.01-0.04-0.07-0.2-0.08-0.14-0.26-0.39-0.6-0.7q-0.08-0.03-0.31-0.1c-0.34-0.1-0.88-0.2-1.55-0.28-1.36-0.16-3.28-0.26-5.59-0.32-4.53-0.13-10.58-0.15-17.38-0.46q0.96 0.85 1.69 1.91c1.14 1.69 1.81 3.74 1.81 5.93v6.87c0 5.86-4.75 10.6-10.61 10.61h-7.75c-5.86-0.01-10.61-4.75-10.61-10.61v-6.87c0-3.68 1.88-6.91 4.72-8.82v-1.09c-7.53-1.25-15.15-3.18-22.19-6.23v0.68c0.86 0.57 1.62 1.3 2.2 2.16 0.86 1.27 1.36 2.81 1.36 4.45v4.71c0 4.39-3.56 7.94-7.95 7.95h-5.31c-4.39-0.01-7.95-3.56-7.95-7.95v-4.71c0-2.62 1.28-4.94 3.23-6.39v-1.14l-40.69 6.55c-2.72 0.38-3.49-3.69-0.66-4.2l43.48-6.67 10.16-1.55 131.47-20.15c0.78-0.12 1.5 0.41 1.62 1.19 0.12 0.77-0.41 1.49-1.18 1.61zm-50.98 13.52q1.48 0.47 2.69 0.96c2.77 1.13 4.55 2.25 6.09 2.94q0.78 0.36 1.57 0.6v-0.68c0-1.97 0.91-3.72 2.32-4.87v-6.3l-12.2 1.96v3.27q-0.01 1.14-0.47 2.12zm-56.61 3.8l-18.62 3c5.89 2.35 12.24 3.97 18.62 5.06z"/>
			<path id="&lt;Compound Path&gt;" fill-rule="evenodd" class="s10" d="m232.2 215.02c0.09 0.79-0.47 1.51-1.26 1.61l-191.52 23.69c-2.73 0.29-3.36-3.8-0.51-4.22l12.13-1.41v-64.96l-13.56 36.02c-0.98 2.56-4.92 1.2-3.98-1.5l16.09-42.73c-6.39 2.41-12.43 5.79-17.97 9.99q-4.47 3.4-8.49 7.46c-0.82 0.83-2.17 0.84-3 0.01-0.84-0.82-0.85-2.17-0.02-3q4.22-4.27 8.94-7.86c4.43-3.36 9.18-6.23 14.17-8.54l-24.95 2.07c-1.17 0.1-2.19-0.77-2.29-1.94-0.1-1.17 0.77-2.2 1.94-2.29l46.2-3.84q4.02-0.5 7.95-0.5c13.07 0 25.28 4 35.58 11.08q0.04 0.02 0.07 0.04 0.01 0 0.02 0.01 0.09 0.06 0.18 0.12c5.39 3.74 10.25 8.32 14.46 13.61l35.36-4.29q0.04 0 0.08 0c14.02-2.15 28.26 4.48 36.15 19.86l14.67-1.4q0 0 0 0 1.64-0.32 3.31-0.33c3.32 0 6.06 0.67 8.26 1.7 2.19 1.04 3.85 2.42 5.06 3.8 2.43 2.76 3.12 5.47 3.16 5.6 0.19 0.76-0.27 1.53-1.03 1.72-0.75 0.2-1.52-0.26-1.72-1.01v-0.01l-0.01-0.02-0.04-0.15q-0.06-0.2-0.21-0.58c-0.2-0.51-0.53-1.22-1.03-2.02-0.59-0.92-1.41-1.95-2.51-2.9l4.97 16.28 3.74-0.44c0.8-0.09 1.52 0.48 1.61 1.27zm-154.42 16.55l-22.49-61.51v64.13zm0.28-73.93q-2.95-0.3-5.98-0.31-1.73 0.01-3.47 0.11-0.14 0.04-0.29 0.06l-3.76 0.31q-0.79 0.09-1.58 0.2-3.57 0.54-7.03 1.47l22.11 60.46zm4.25 62.89l21.6-53.77c-6.55-4.23-13.83-7.15-21.6-8.53zm22.09-43.58l-21.71 54.05 21.71-2.53zm23.79 48.75l-19.54-48.73v51zm0.42-29.24q-0.06-0.12-0.11-0.24-0.06-0.11-0.12-0.22c-4.12-9.26-9.93-17.21-16.93-23.46l17.16 42.79zm3.83 19.37l14.5-34.27q-0.29 0.17-0.58 0.35c-5.7 3.6-10.41 8.72-13.92 14.53zm16.41-28.7l-15.75 37.99 15.75-1.83zm14.2 34.5l-10.37-32v33.21zm0.19-44.81c-3.42 0.01-6.85 0.6-10.11 1.74l10.11 32.02zm14.53 13.8l-10.32 30.5 10.32-1.2zm0.03-10.14c-3.34-1.85-7-2.97-10.74-3.43v34.55l10.71-30.86v-0.04q0.01-0.11 0.03-0.22zm16.03 37.56l-12.23-29.31v30.73zm0.68-15.91c-2.19-6.49-5.73-12.56-10.68-17.19q-0.34-0.31-0.69-0.61l11.37 27.83zm2.83 9.44l5.21-13.89c-1.89 1.26-3.66 2.88-5.21 4.77zm6.08-9.04l-5.34 15.01 5.34-0.62zm7.85 13.48l-5.01-13.68v14.26zm0.3-21.38q-2.63 0.08-5.2 1.07l5.2 14.36zm7.25 9.24l-4.02 11.73 4.02-0.47zm0.04-7.88c-1.25-0.56-2.72-1-4.46-1.22v14.99l4.42-12.74v-0.71q0-0.16 0.04-0.32zm5.82 18.46l-3.03-9.81v10.16z"/>
			<path id="&lt;Path&gt;" class="s17" d="m646.12 87.44q1.11-0.63 2.17-1.2l-6.55-4.83c-1.1-0.8-2.42-1.24-3.78-1.24h-7.57c-1.31 0-2.61-0.24-3.84-0.72l-7.87-3.05q-1.11-0.43-2.31-0.43h-5.01c-1.48 0-2.95-0.31-4.31-0.92l-11.56-5.14q-1.25-0.54-2.59-0.55-0.81 0-1.61 0.21l-5.33 1.39c-1.39 0.36-2.61 1.17-3.48 2.31l-4.21 5.54q-1.12 1.48-2.68 2.49l-9.97 6.47q0.64 0.31 1.22 0.73l4.39 3.3c0.59 0.43 1.29 0.66 2.01 0.66q0.42 0 0.84-0.1l12.25-3.19q0.95-0.24 1.92-0.24 1.51 0 2.93 0.58l0.06 0.03q0.01 0.01 0.36 0.17 0.36 0.16 1.01 0.45c0.86 0.38 2.07 0.91 3.47 1.5 2.79 1.18 6.34 2.6 9.27 3.55 1.75 0.57 4.08 1.08 6.57 1.5 2.5 0.42 5.17 0.76 7.67 1.03 4.29 0.45 8.06 0.69 9.63 0.78q1.74-1.34 3.47-2.54c4.73-3.26 9.28-6.17 13.43-8.54z"/>
			<path id="&lt;Path&gt;" class="s7" d="m589.34 111.17c4.16 0 7.44 3.46 8.07 10.04l2.32-0.12c-0.21-3.4-0.96-6.18-2.07-8.33-1.32-2.57-3.11-4.27-5.22-5.26q-2.12-1-4.7-1.01-2.55 0.01-4.65 1.05c-1.4 0.7-2.66 1.74-3.75 3.18-1.91 2.52-3.29 6.35-3.59 11.54l5.52-0.27c0.62-7.16 3.91-10.82 8.07-10.82z"/>
			<path id="&lt;Path&gt;" class="s20" d="m733.9 397.85q0 0 0.01 0h-0.01z"/>
			<path id="&lt;Compound Path&gt;" fill-rule="evenodd" class="s10" d="m696.77 474.34c0.69 0.37 1.56 0.37 2.34-0.27l2.84-2.45 1.41-1.23c1.96-1.76 4.53-2.81 7.13-2.74 2.64 0.27 5.29 0.6 7.94-0.01 8.89-1.8 13.59-10.17 11.76-18.82-0.46-2.65-1.88-4.81-3-7.05-1.84-3.34-1.56-7.64 0.62-10.75 1.99-3.03 3.78-6.01 5.08-9.52 2.15-6.33 1.06-13.2 0.1-19.62-0.06-0.4-0.2-1.12-0.31-1.71 0.54-0.65 1.42-1.61 2.05-2.19 4.48 0.7 9.34-0.63 12.61-3.86l1.37-1.28 2.05-1.93c5.94 0.59 11.87 1.11 17.84 1.36 2.58 0.02 5.04 0.28 7.66-0.31 1.18-0.27 2.2-1.19 2.87-2.11 2.63-4.01 3.72-8.3 4.14-13.02 0-0.49-0.07-1.04-0.32-1.51-0.29-0.57-0.92-1.13-1.29-1.38-4.63-2.89-9.86-4.57-14.82-6.65-3.58-1.03-7.34-1.43-10.93-2.16-1.95-0.4-3.65-0.72-5.43-1.65-6.41-3.3-12.84-6.84-19.23-10.36 0.64-0.45 1.3-0.86 1.98-1.14 0.23 0.02 0.93 0.05 1.36 0.14 3.67 0.52 7.57 1.36 11.33 1.85 1.85 0.21 3.83-0.16 5.59-0.26l8.11-0.81 19.21 1.7c0.32 0.02 0.64 0 0.87-0.02 1.08-0.07 2.87-0.3 3.98-0.42 7.43-1.04 15.08-1.73 22.28-4.03 2.63-0.87 5.26-1.93 7.58-3.51 0.69-0.52 1.63-1.08 1.73-2.08 0.14-1.09-0.64-2.07-1.73-2.18-6.83-0.84-22.29-2.86-28.98-3.53-1.39-0.2-3.33-0.18-4.54-0.48-1.38-0.36-2.88-0.93-4.36-1.5-2.62-0.95-5.08-2.23-7.92-2.75-0.8-0.12-1.8 0.09-2.49 0.27-3.08 0.79-6.11 2.09-9.08 2.45-0.72 0.08-0.93 0.04-1.67-0.18-2.17-0.69-4.35-1.7-6.48-2.66-2.9-1.33-5.81-2.75-8.66-4.2q-0.48-0.25-1.05-0.21l-9.59 0.8c-3.17 0.24-6.44 0.51-9.48 0.59-2.81-0.13-6.65-1.6-8.63-3.71 1.06-0.78 2.4-1.44 3.6-2.03 4.22-2 8.73-3.72 13.2-5.16 1.76-0.49 3.45-1.19 5.11-1.19 2.59 0.48 4.79 2.17 7.49 2.89 3.28 1.05 6.94 1.1 10.28 0.73 4.92-0.5 9.66-1.36 14.47-2.3l4.64-0.94c1.35-0.19 2.62-0.08 3.94 0.35 7.75 2.25 15.64 4.42 23.59 5.85 9.68 1.61 19.58 1.15 29.31 0.62 1.31-0.13 1.83-1.16 1.69-2.1-0.13-0.87-0.81-1.66-1.96-1.6-7.9 0.48-15.89 0.71-23.77 0.04-7.85-0.85-15.56-3.01-23.19-5.08-1.85-0.45-5.41-1.78-7.33-1.89-1.86-0.34-5.84 0.76-7.65 1.06-4.66 0.9-9.42 1.76-14.1 2.23-4.81 0.61-8.82-0.15-13.02-2.34-1.16-0.54-2.61-1.19-4.03-1.3-2.32-0.15-4.58 0.77-6.61 1.34-4.07 1.31-8.02 2.79-11.92 4.54h-40.51c-0.94 0-1.71 0.73-1.76 1.66q-0.01 0.05-0.02 0.11c0 0.98 0.8 1.77 1.78 1.77h34.02c-0.64 0.54-1.28 1.26-1.39 2.15-0.3 4.7 8.79 8.16 12.79 8.14 5.59-0.21 13.14-0.81 18.85-1.33q4.1 2.09 8.3 4.03c2.79 1.21 5.45 2.63 8.53 3.2 2.29 0.17 4.71-0.61 6.7-1.18 1.96-0.53 3.8-1.37 5.66-1.56 4.84 1.17 9.33 4.29 14.49 4.54 6.24 0.51 16.94 1.99 25.19 3.04-7.42 3.04-15.92 3.47-23.78 4.68-1.05 0.13-2.72 0.3-3.78 0.39l-0.36 0.02-19.28-1.73q-0.19-0.01-0.38 0.01c-2.77 0.25-9.63 1-12.28 1.12-4.61-0.38-9.09-1.72-13.78-2.07-2.79 0.1-5.01 2.38-7.04 3.96-1.06 0.87-0.88 2.65 0.35 3.27 7.31 4.03 14.53 8.06 22.03 11.92 0.91 0.48 2.2 1 3.26 1.27 4.53 1.24 9.21 1.55 13.68 2.8 2.32 0.89 4.79 1.98 7.05 2.88 2.23 0.97 4.65 1.89 6.52 3.16-0.38 2.65-1.43 7.56-3.32 10.15-0.11 0.13-0.23 0.32-0.32 0.38l-0.24 0.2-0.05 0.04c-0.26 0.04-0.24 0.08-0.61 0.11-7.99 0.41-16.4-0.68-24.41-1.39-0.58-0.06-1.18 0.12-1.63 0.55l-2.73 2.57-1.37 1.28c-2.5 2.49-6.24 3.38-9.69 2.69-0.82-0.21-1.69 0.08-2.3 0.61-1.57 1.39-2.69 2.47-3.82 4.25-0.18 0.35-0.3 0.86-0.25 1.26 0.93 5.57 1.93 11.34 1.28 16.97-0.62 4.67-3.47 8.74-5.97 12.71-2.63 4.4-2.63 10.15-0.05 14.57 0.78 1.47 1.88 3.54 2.28 4.97 1.46 6.63-1.43 12.87-8.42 14.35-1.91 0.43-3.95 0.28-5.88 0-3.31-0.35-6.7 0.56-9.41 2.38-1.95 1.35-4.08 3.45-5.95 4.99-0.99 0.91-0.9 2.05-0.32 2.82 0 0 0.38 0.44 0.76 0.66zm37.13-76.49h0.01q-0.01 0-0.01 0z"/>
			<path id="&lt;Path&gt;" class="s10" d="m613.03 414.19l-4.01-8.39c-1.06-2.21-3.29-3.61-5.75-3.61h-34.89c-1.17 0-2.13 0.95-2.13 2.12 0 1.18 0.96 2.13 2.13 2.13h34.89c0.82 0 1.56 0.47 1.91 1.2l4.01 8.38q0.21 0.44 0.21 0.91c0 0.5-0.17 0.98-0.5 1.37l-0.01 0.02-22.74 27.38c-1.01 1.19-1.5 2.66-1.5 4.09 0 1.12 0.29 2.22 0.85 3.2 0.56 0.97 1.41 1.83 2.47 2.4l9.01 4.91c1.03 0.56 2.32 0.18 2.88-0.85 0.56-1.04 0.18-2.33-0.85-2.89l-9-4.9q-0.55-0.31-0.82-0.8-0.29-0.49-0.29-1.07-0.01-0.73 0.5-1.36l0.02-0.02 22.74-27.37c0.98-1.17 1.49-2.63 1.49-4.11 0-0.93-0.2-1.87-0.62-2.74z"/>
			<path id="&lt;Path&gt;" class="s10" d="m651.14 341.97l3.54 0.49q0.18 0.03 0.37 0.01l15.47-1.11 16.89 1.11q0.3 0.02 0.58-0.05l17.76-4.79c0.79-0.21 1.34-0.95 1.31-1.77-0.03-0.82-0.63-1.52-1.43-1.68l-20.24-3.93-0.15-0.02-15.72-1.68q-0.23-0.02-0.47 0.02l-6.28 1.01c-0.96 0.15-1.62 1.06-1.46 2.03 0.15 0.96 1.06 1.62 2.03 1.47l6.04-0.98 15.41 1.65 12.64 2.45-10.08 2.72-16.72-1.11h-0.24l-15.41 1.12-3.36-0.47c-0.97-0.14-1.86 0.54-2 1.51-0.13 0.97 0.55 1.86 1.52 2z"/>
			<path id="&lt;Path&gt;" class="s10" d="m701.79 421.84l-1.9-24.28 4.53-3.73h9.19c0.53 0 1.05-0.19 1.47-0.59l19.16-18.44c1.01-0.92 0.75-2.66-0.47-3.25l-21.73-10.97q-0.39-0.2-0.87-0.2l-31.71 0.13 1.43-2.42c3.04 0.01 11.98-0.03 12.08 0.02 3.14 0.08 6.06-2.01 7.18-4.92l1.25-2.62c0.58-1.14-0.33-2.59-1.62-2.56l-36.73-0.09c-0.59 0-1.19 0.28-1.55 0.81l-2.26 3.24c-2.1 2.68 0.05 6.58 3.44 6.29 0.94 0 2.29 0 3.63 0.01l-1.4 2.5-68.49-0.17c-2.86 0.07-2.76 4.22 0 4.25l69.64-0.18c0.68 0 1.34-0.36 1.69-1l3.53-6.39c0.73-1.23-0.25-2.9-1.69-2.86l-7.34 0.01-0.04-0.08 0.01-0.01 0.14-0.21 1.68-2.44 32.92-0.09-0.03 0.07c-0.3 0.66-0.63 1.36-1.19 1.85-1.07 1.1-2.79 1.12-4.22 1.07l-11.61 0.03c-0.59 0-1.16 0.3-1.49 0.84l-3.57 5.92c-0.7 1.11 0.17 2.7 1.5 2.66l34.36 0.15 18.7 9.64-16.65 15.75h-9.11c-0.47 0-0.95 0.16-1.35 0.48l-5.97 4.92c-0.51 0.43-0.82 1.1-0.77 1.81l1.91 24.3-47.39 40-3.15-19.56 2.15-3.32 11.96 1.47c0.66 0.08 1.36-0.16 1.84-0.69l8.29-9.26q0.36-0.39 0.49-0.94c0.27-1.14-0.45-2.28-1.59-2.55l-17.46-4.05-7.52-20.47 7.02-10.37c0.96-1.34-0.1-3.37-1.76-3.32h-3.91l3.83-7.9q0.2-0.42 0.21-0.92c0-1.18-0.95-2.13-2.13-2.13h-20.9q-0.48 0-0.94 0.22l-20.36 10.06h-17.61c-2.86 0.09-2.75 4.2 0 4.26h18.11q0.48 0 0.94-0.22l20.36-10.07h17.01l-3.83 7.9c-0.69 1.35 0.38 3.09 1.92 3.05h3.29l-5.39 7.96c-0.36 0.55-0.47 1.27-0.23 1.93l8.29 22.56c0.25 0.64 0.8 1.17 1.52 1.34l15.08 3.5-5.16 5.75-12.17-1.49c-0.78-0.09-1.58 0.25-2.04 0.96l-3.32 5.12c-0.27 0.42-0.4 0.95-0.31 1.49l3.87 24.08q0.09 0.56 0.47 1.03c0.76 0.9 2.1 1.01 3 0.26l51.09-43.14c0.5-0.43 0.81-1.08 0.75-1.79z"/>
			<path id="&lt;Path&gt;" class="s7" d="m88.39 244.4v3q0 0.01 0 0.02l0.01 0.08q0.01 0.13 0.06 0.35c0.07 0.29 0.2 0.64 0.42 0.92 0.15 0.18 0.32 0.35 0.6 0.5 0.36 0.2 0.93 0.39 1.9 0.4 0.62 0 1.07-0.09 1.4-0.2 0.34-0.11 0.56-0.24 0.73-0.38 0.34-0.28 0.54-0.65 0.67-1.04 0.08-0.26 0.11-0.51 0.13-0.65v-0.09q0-0.03 0-0.06v-3.8z"/>
			<path id="&lt;Path&gt;" class="s7" d="m97.18 251.37c-0.46 0.61-1.09 1.19-1.89 1.63-1.06 0.59-2.38 0.92-3.91 0.92q-1.75-0.01-3.11-0.53c-0.9-0.34-1.65-0.85-2.23-1.43q-0.35-0.35-0.61-0.72-0.26 0.64-0.27 1.38v4.71c0 1.02 0.41 1.94 1.08 2.61 0.68 0.67 1.59 1.08 2.62 1.08h5.31c1.03 0 1.94-0.41 2.62-1.08 0.67-0.67 1.08-1.59 1.08-2.61v-4.71q-0.01-0.92-0.4-1.67-0.14 0.21-0.29 0.42z"/>
			<path id="&lt;Path&gt;" class="s7" d="m194.31 235.65c0.04 0.15 0.11 0.32 0.2 0.43q0.07 0.11 0.24 0.2c0.16 0.09 0.46 0.21 1.08 0.21 0.43 0 0.7-0.06 0.87-0.13 0.17-0.06 0.25-0.12 0.31-0.18 0.13-0.12 0.23-0.34 0.28-0.56q0.04-0.17 0.04-0.22-0.01-0.02-0.01-0.04v-8.49l-3.04 0.49v8.11q0 0 0 0v0.01z"/>
			<path id="&lt;Path&gt;" class="s7" d="m194.01 244.64h3.82c0.57 0 1.07-0.23 1.45-0.6 0.37-0.38 0.6-0.88 0.6-1.45v-3.29q-0.42 0.4-0.96 0.71c-0.86 0.48-1.91 0.73-3.09 0.73q-1.36 0-2.45-0.42c-0.55-0.2-1.01-0.51-1.42-0.84v3.11c0.01 0.57 0.23 1.07 0.6 1.45 0.38 0.37 0.88 0.6 1.45 0.6z"/>
			<path id="&lt;Path&gt;" class="s7" d="m169.62 234.23h2.9q0.48-0.01 0.77-0.3 0.28-0.28 0.28-0.66v-1.51l-5 0.73v0.78q0.01 0.38 0.29 0.66 0.29 0.29 0.76 0.3z"/>
			<path id="&lt;Path&gt;" class="s7" d="m125.01 254.1q0.02 0.25 0.11 0.65c0.12 0.52 0.36 1.16 0.79 1.71 0.29 0.36 0.65 0.7 1.17 0.99 0.69 0.38 1.69 0.69 3.25 0.69 1.13 0 1.96-0.17 2.59-0.42 0.62-0.24 1.06-0.55 1.4-0.89 0.68-0.67 1.01-1.59 1.15-2.29 0.08-0.38 0.1-0.67 0.1-0.79q-0.01-0.05-0.01-0.1v-16.84l-10.56 1.7v15.36q0 0.02-0.01 0.03v0.02z"/>
			<path id="&lt;Path&gt;" class="s7" d="m126.64 274.69h7.75c1.77 0 3.34-0.7 4.5-1.86 1.15-1.16 1.86-2.73 1.86-4.49v-6.87c0-1.33-0.4-2.54-1.08-3.55q-0.27-0.39-0.58-0.74c-0.26 0.61-0.6 1.26-1.09 1.89-0.6 0.78-1.41 1.53-2.45 2.1-1.38 0.78-3.13 1.23-5.22 1.22q-2.4-0.01-4.19-0.7c-1.19-0.45-2.16-1.12-2.91-1.86-0.73-0.73-1.24-1.51-1.6-2.26-0.84 1.08-1.35 2.43-1.34 3.9v6.87c0 1.76 0.7 3.33 1.86 4.49 1.16 1.16 2.73 1.86 4.49 1.86z"/>
			<path id="&lt;Path&gt;" class="s7" d="m124.85 181.21l18.94-2.3c-4.75 2.95-9.18 7.06-12.97 12.31q-2.64-5.31-5.97-10.01z"/>
			<path id="&lt;Path&gt;" class="s7" d="m195.27 196.24l5.08-0.49q-2.09 1.49-3.91 3.42-0.55-1.51-1.17-2.93z"/>
			<g id="&lt;Group&gt;">
				<path id="&lt;Compound Path&gt;" fill-rule="evenodd" class="s10" d="m791.96 137.8c-1.44 13.58-12.59 23.55-22.8 30.73-7.42 5.07-15.32 9.46-23.21 13.85 2.82 0.85 5.78 3.04 7.06 5.82 4.62 12.88-7.27 24.66-15.73 31.92-11.83 10.45-25.16 19.16-39.02 27.06 3.65 0.86 7.66 3.08 9.03 7.28 2.06 5.72-0.65 11.68-4.13 16.08-11.37 10.79-25.11 18.86-39.09 26.59 3.77 1.46 6.84 4.66 6.91 9.12-0.95 9.63-8.9 16.53-15.98 21.56-21.27 14.62-46.94 25.9-73.57 32.67 1.31 9.15 1.83 18.97 2.03 26.01-15.6 8.8-25.01 13.24-41.41 19.84-2.1 2.4-3.3 5.2-5.3 7.7 0 0-6.07 9.5-17 20.77 1.3 0.7 2.8 0.1 4.1 0.5 8.99 0.81 17.81 2.46 26.21 5.25 2.83 0.94 16 5.31 25.44 11.57 1.3 0.86 5.51 4.1 6.45 4.83 7.31 5.69 14.89 12.22 18.7 20.55 0.99 2.01 2.59 6.95 1.74 12.23-0.96 5.93-3.87 11.72-7.57 14.79-9.8 8.17-22.8 11.24-35.95 10.91-1.88-0.05-8.93-0.4-10.57-0.47-33.55-1.33-64.45-10.92-95.43-20.45-4.7-1.45-33.88-10.76-38.86-13.99-19.68 2.35-39.95 2.12-59.22-0.74-7.4-1.1-17.71-3.72-27.9-7.06-31.41 12.23-76.46 21.1-117.19 21.59 0 0-17.26 0.32-20.95 0.02-6.25-0.5-13.55-3.92-16.65-10.12-6.49-11.24-2-25.49 5.11-35.28q-0.74 0.04-1.46 0.05c-9.43 0.19-17.65-2.22-24.87-4.69-17.45-5.96-27.38-14.41-33.31-22.67-1.26-1.75-8.11-12.05-9.93-27.54-1.82-15.38 3.66-38.48 5.54-42.04 3.18-6.01 13.57-14.82 15.71-17.22 0.57-0.65 3.59-4.06 7.31-6.8l-12.46-28.7c-0.52-1.2-0.77-2.46-0.77-3.68 0-2.46 0.99-4.74 2.62-6.42 1.62-1.69 3.98-2.79 6.58-2.79q0.24 0 0.47 0.02l74.29 3.65q1.07 0.07 2.07 0.36 0.29-0.89 0.63-1.86c1.12-3.15 2.29-5.48 3.56-7.27q1.8-2.51 3.99-3.62c1.78-14.28 5.11-29.85 11.17-44.18 11.15-26.39 31.63-52.29 56.47-69.64 14-9.78 28.91-16.31 42.45-20.61q0.04-0.42 0.06-0.83c0.18-2.79 1.64-19.94 1.98-22.66 0.34-2.72 3.05-17.76 6.13-24.4 2.58-0.43 7.5-1.37 10.77 1.35-0.14 2.75-2.57 6.09-4.14 10.96-2.11 6.52-3.93 14.66-4.58 18.34-0.93 5.26-1.42 10.38-1.68 14.75 7.29-1.92 13.99-3.21 19.67-4.03q-0.08-0.17-0.14-0.34c-0.16-0.47-0.25-0.98-0.25-1.48 0-0.67 0.15-1.29 0.36-1.78 0.2-0.49 0.44-0.87 0.67-1.17 0.47-0.59 0.89-0.92 1.28-1.21 0.76-0.54 1.44-0.86 2.18-1.2q0.74-0.32 1.53-0.62c2.1-0.8 4.56-1.58 6.65-2.35 1.38-0.5 2.6-1.01 3.23-1.35 3.2-1.75 5.97-3.35 8.39-5.04 2.42-1.69 4.49-3.47 6.39-5.64 2.09-2.39 4.32-4.99 7.31-7.58 2.99-2.59 6.71-5.13 11.67-7.45 3.31-1.55 7.17-3.01 11.77-4.38 7.23-2.16 16.16-3.86 26.51-3.86 16.23-0.01 35.91 4.22 57.69 17.2 13.73 8.16 23.32 18.43 29.42 29.41 6.1 10.99 8.72 22.63 8.72 33.53q0 1.37-0.06 2.72c-0.1 2.66-0.2 4.33-0.28 5.55-0.09 1.22-0.18 1.99-0.24 2.72-0.05 0.5-0.09 1-0.14 1.71-0.01 0.25-0.04 0.42-0.09 0.66l-0.02 0.12q-0.04 0.18-0.09 0.58c-0.07 0.53-0.15 1.34-0.15 2.31 0 1.17 0.11 2.59 0.45 4.08 0.33 1.5 0.89 3.06 1.78 4.57 0.42 0.7 0.79 1.67 0.79 2.81 0.01 0.97-0.31 1.98-0.77 2.72-0.47 0.76-1.03 1.27-1.55 1.65q-0.13 0.09-0.26 0.17 0.32 0.31 0.65 0.64c9.47-4.92 19.12-9.5 28.62-14.34l38.22-16.93 45.64-17.98 46.12-16.47c25.35-8.29 52.08-16.6 77.39-16.58 8.17 0.5 17.84 5.8 17.09 15.64zm-547.47 285.9c-6.24-2.69-13.68-6.23-20.19-10.23-1.38 3.94-3.23 8.28-4.75 11.7 7.35-1.2 15.63-2.21 22.95-1.46 0.56-0.03 1.25-0.03 1.99-0.01z"/>
				<g id="&lt;Group&gt;">
					<path id="&lt;Path&gt;" class="s21" d="m288.68 454.8c-11.81-6.43-23.09-14.13-33.38-23.69l-1.3-0.5c-12.84-0.95-26.15-0.51-38.41 2.85q-2.13 0.59-4.22 1.29c-1.2 1.59-10.99 8.87-18.61 11.48q-1.46 0.49-2.98 0.88-1.79 1.61-3.48 3.4c-6.2 8-13.1 18-8.8 28.8 3.8 8 12.9 7.3 20.4 7.8 39 0.1 82.03-6.48 117.85-18.37-4.98-1.93-9.64-3.98-13.55-6.03-4.9-2.57-9.4-5.24-13.52-7.91z"/>
					<path id="&lt;Path&gt;" class="s21" d="m511.91 442.34c-6.44 5.79-14.01 11.6-22.57 16.5-19.42 11.1-44.62 16.77-60.52 19.51 1.62 1.48 22.55 8.5 41.3 13.53 24.01 6.43 47.99 12.15 73.3 14.45 1.07 0.1 3.83 0.38 6.36 0.62 2.02 0.19 8.99 0.5 11.17 0.36 5.76-0.35 11.56-1.5 16.7-3.21 6.9-2.9 15.7-7.9 15.6-17-0.4-6.1-1.42-9.18-7.4-15.6-6.87-7.37-17.41-14.61-26.81-19.08-14.58-6.91-30.28-9.67-47.13-10.08z"/>
					<path id="&lt;Path&gt;" class="s22" d="m529.18 411.28c-55.6 20.9-111.83 37.65-175.83 34.85-28.5-2.1-56.2-6.4-82.5-13.9 31.46 29.16 79.61 41.58 124.15 41.6 35.3 0.02 103.04-15.19 134.18-62.55z"/>
					<path id="&lt;Path&gt;" class="s23" d="m296.45 266.83c1.8-3 2.3-6.5 3.4-9.8-2.3 2.9-5.2 5.6-8.6 6.5-6.2 1.7-12.7-0.2-17.1-5.1-7-10.5-6.5-28.4 0.5-38.8 4-4.7 9.4-6.5 15.4-5.6-6.95-3.47-16.3-2.02-21.99 3.47-0.21 0.2-1.01 1.17-1.19 1.44-8.66 12.62-7.05 31.6-3.52 45.99 9.6 4.3 22.7 4.2 33.1 1.9z"/>
					<path id="&lt;Path&gt;" class="s23" d="m400.15 279.33c4.3-0.3 4.3-5.3 6-8.1-4.7 4.5-12.3 5.4-18.2 3.1-5.5-2.3-9.7-8.1-10.6-13.7-1.07-10.68-0.82-21.92 4.77-30.44 0.17-0.25 0.93-1.2 1.14-1.42 4.54-4.63 11.56-6.65 17.59-4.64-3.4-2.4-7.5-3.4-12-3.6-7.88 0.26-14.99 6.57-18.59 13.57-0.51 1-1.73 4.59-1.93 5.39-2.7 11.13-3.4 24.25-0.78 35.54 9.8 4 21.3 5.4 32.6 4.3z"/>
					<path id="&lt;Path&gt;" class="s21" d="m321.95 294.73c8.4 1.8 19.6 3.2 26.6-2.2-0.7-0.5-2-1.2-1.9-2.4 0.6-0.9 1.9-0.3 2.6-0.2 2.7 1.1 4.5 3.8 4.4 6.7-0.5 1.5-0.8 3.6-2.7 4.1-1.5-0.5-0.9-2.5-0.7-3.6-7.9 6-15.6 12.3-23.3 18.9-1.9 0.9-3.5-0.4-4.8-1.6-3.5-6.8-8.4-12.9-12.9-19.2l-7-1c6.2 8.5 13.3 17.2 18.2 26.2 1.2 1.6 2.9 1.8 4.8 1.6 11.1-9.3 24.6-14 35.1-23.7 1.4-3.3 0.6-7.3-1.7-9.9-1.9-1.6-3.9-2.7-6.5-2.6-8.6-2.2-15.8-7.7-23.3-12.7-9-5.7-15.9 4.8-24 7.2-6.2 3.5-15.8 2-18.9 10.1 12.5-2.7 24.5 1.6 36 4.3z"/>
					<path id="&lt;Path&gt;" class="s24" d="m338.25 300.43c-7.9-0.1-15.3-1.3-22.3-3.6 3.6 4.8 6.3 10 9.6 14.7z"/>
					<path id="&lt;Path&gt;" class="s25" d="m396.03 385.54c1.13 2.38 2.73 4.97 4.35 6.89 1.07 1.28 2.17 2.24 2.95 2.67 0.43 0.24 0.73 0.31 0.84 0.31 0.1 0 0.61-0.03 1.28-0.13q1.03-0.14 2.58-0.41c2.05-0.37 4.68-0.9 7.64-1.55 5.91-1.29 13.09-3.03 19.49-4.82 4.27-1.19 8.2-2.4 11.13-3.49 1.67-0.62 3.03-1.2 3.85-1.66q0.13-0.07 0.24-0.13c-0.15-2.12-0.73-4.22-1.55-6.16-0.96-2.26-2.24-4.29-3.46-5.82-0.81-1.03-1.59-1.83-2.17-2.32q-0.21-0.17-0.36-0.28c-0.45 0.01-1.28 0.09-2.34 0.25-1.22 0.17-2.74 0.44-4.48 0.77-3.47 0.66-7.79 1.6-12.34 2.66-9.09 2.14-19.14 4.81-25.22 6.87-1.72 0.58-3.13 1.12-4.02 1.54q-0.05 0.02-0.09 0.04 0.08 0.58 0.36 1.48c0.29 0.95 0.75 2.1 1.32 3.29z"/>
					<path id="&lt;Compound Path&gt;" fill-rule="evenodd" class="s25" d="m337.69 411.82c-1.57-9.92-2.58-18.95-3.23-26.01-0.42-4.69-0.69-8.51-0.85-11.15q-0.11-2-0.16-3.04-0.01-0.16-0.01-0.29 0.23-0.59 0.49-1.19c2.43-5.58 6.14-11.02 9.38-15.13 1.8-2.28 3.44-4.16 4.63-5.46q0.01-0.01 0.02-0.03 0.85 0.05 1.61 0.3c1.09 0.38 2.17 1.1 3.22 2.25 1.58 1.71 3.02 4.4 4.02 7.72 1 3.32 1.58 7.24 1.61 11.39 0.01 1.06 0.5 2.06 1.33 2.72 0.83 0.67 1.91 0.93 2.95 0.71 0.03-0.01 4.67-0.99 10.01-2.34 5.19-1.32 9.05-2.38 13.86-4.05 4.82-1.67 10.56-3.93 19.72-7.65 7.96-3.24 17.46-7.92 27.3-13.13 5.04-2.68 10.17-5.49 15.22-8.32q2.04 3.28 4.57 6.1 1.09 1.35 2.3 2.7c3.54 3.87 8.07 6.88 13.18 9.26q2.07 0.95 4.26 1.77c27.78 12.1 65.32 8.54 74.7 7.56 6.91-0.72 13.85-1.77 20.76-3.13q2.48-0.3 4.38-0.56c1.31 6.45 1.9 13.2 1.9 19.87-48.7 24.78-101.21 42.13-156.71 51.94-23.39 4.44-50.11 5.05-75.15 3.13-1.47-5.79-2.71-11.28-3.58-15.9q-0.96-5.14-1.73-10.04zm50.93-31.57c0.01 0.94 0.17 1.84 0.42 2.79q0.5 1.89 1.43 3.98c2.79 10.92 3.55 18.89 3.93 24.36 0.19 2.76 0.28 4.87 0.51 6.59 0.12 0.87 0.26 1.65 0.6 2.48 0.18 0.42 0.41 0.86 0.77 1.29 0.35 0.42 0.86 0.83 1.44 1.08 0.9 0.39 1.81 0.59 2.79 0.73q1.47 0.19 3.19 0.18c3.63 0 8.17-0.54 13.09-1.34 7.36-1.21 15.51-3.03 22.08-4.68 3.28-0.82 6.16-1.6 8.37-2.25q1.65-0.48 2.77-0.85 0.55-0.19 0.99-0.35c0.29-0.12 0.53-0.21 0.85-0.38 0.6-0.33 0.93-0.74 1.16-1.06 0.39-0.58 0.52-1.03 0.65-1.48 0.18-0.67 0.28-1.35 0.34-2.13q0.1-1.16 0.1-2.59c0-2.56-0.22-5.77-0.71-9.31-0.36-2.69-0.88-5.56-1.57-8.46q0.88-0.41 1.61-0.85c0.55-0.33 1.04-0.67 1.53-1.17 0.24-0.26 0.49-0.56 0.72-0.98 0.19-0.36 0.36-0.84 0.4-1.4 0.01-0.1 0.01-0.14 0.01-0.21q0 0 0-0.01v-0.01q0 0 0 0v-0.02q0 0 0-0.01 0 0 0 0v-0.02c-0.02-2.61-0.53-5.1-1.3-7.38-1.17-3.43-2.93-6.4-4.68-8.69q-1.33-1.73-2.6-2.92-0.62-0.6-1.24-1.06c-0.42-0.31-0.83-0.58-1.33-0.81-0.51-0.23-0.83-0.26-1.12-0.31q-0.42-0.04-0.79-0.04c-0.58 0-1.18 0.05-1.88 0.13-2.61 0.29-6.64 1.04-11.43 2.07-7.17 1.53-15.95 3.67-23.4 5.74-3.73 1.04-7.13 2.05-9.86 2.98q-2.05 0.7-3.57 1.34-0.76 0.31-1.39 0.63c-0.43 0.22-0.81 0.43-1.2 0.71q-0.56 0.41-0.91 0.92c-0.34 0.51-0.52 1.02-0.63 1.47q-0.15 0.69-0.14 1.3z"/>
					<path id="&lt;Path&gt;" class="s25" d="m446.48 390.96c-2.63 0.91-5.69 1.84-8.96 2.77-9.2 2.6-20.01 5.1-26.82 6.41-1.96 0.37-3.58 0.65-4.8 0.8-0.67 0.08-1.19 0.14-1.73 0.14q-0.15 0-0.31-0.01c-0.81-0.04-1.56-0.24-2.25-0.52q-1.04-0.43-1.94-1.06-0.5-0.35-0.98-0.75 0.3 1.87 0.52 3.57c0.6 4.64 0.83 8.35 1 11.09 0.12 1.82 0.22 3.23 0.36 4.09q0.03 0.18 0.06 0.33 0.27 0.06 0.63 0.11 0.98 0.13 2.44 0.13c2.48 0 5.8-0.31 9.48-0.85 3.69-0.53 7.73-1.28 11.75-2.11 8.02-1.67 15.92-3.68 20.55-5.03q1.8-0.52 2.82-0.87c0.08-0.6 0.13-1.49 0.13-2.58 0-2.22-0.2-5.23-0.65-8.55-0.31-2.27-0.75-4.68-1.3-7.11z"/>
					<path id="&lt;Compound Path&gt;" class="s23" d="m385.02 153.69c11.74 8.54 28.18 17.97 50.35 26.37 22.72 8.63 51.04 14.17 71.79 16.36 6.91 0.73 12.99 1.1 17.68 1.1 2.19 0 4.08-0.08 5.56-0.23q0.3-0.03 0.58-0.06-0.67-1.78-1.04-3.46c-0.5-2.23-0.65-4.26-0.65-5.95 0-2.18 0.25-3.78 0.38-4.49q0.07-0.98 0.14-1.68c0.05-0.55 0.1-1.01 0.15-1.58 0.1-1.13 0.21-2.76 0.35-6.24q0.04-1.18 0.04-2.38c0-9.56-2.28-19.75-7.64-29.39-5.37-9.65-13.8-18.78-26.34-26.25-20.56-12.22-38.58-15.99-53.34-16-9.41 0-17.51 1.55-24.08 3.51-6.4 1.91-10.99 3.92-14.48 5.96-3.5 2.05-5.93 4.1-8.11 6.29-1.45 1.46-2.77 2.99-4.19 4.61-2.41 2.76-5.07 5.02-7.92 7.01-2.85 2-5.9 3.74-9.19 5.53q-1.12 0.6-2.34 1.09-1.22 0.5-2.51 0.96c-1.55 0.55-3.13 1.08-4.5 1.56q2.07 2.48 5.09 5.46c3.64 3.58 8.34 7.63 14.22 11.9z"/>
					<path id="&lt;Path&gt;" class="s25" d="m270.4 391.36c-0.29 0.44-0.75 1.03-1.42 1.67-0.67 0.63-1.56 1.31-2.73 1.79-0.78 0.32-1.69 0.54-2.69 0.54-0.95 0-1.95-0.2-2.91-0.62q-1.51-0.66-3.41-1.65l1.7 3.93c0.52 1.19 0.77 2.45 0.77 3.67q-0.01 1.62-0.55 3.09c4.85 1.87 9.58 3.56 13.15 4.79q0.02-0.12 0.04-0.25c0.04-0.35 0.06-0.77 0.06-1.2q-0.01-0.65-0.03-1.29-0.08-2.31-0.08-4.58c0-4.9 0.25-9.57 0.57-13.46q-1.23 1.73-2.47 3.57z"/>
					<path id="&lt;Path&gt;" class="s25" d="m250.64 368.7c-1.59-0.9-3.51-2.15-5.54-3.56l8.41 19.37q0.76 0.44 1.49 0.87c3.19 1.84 6.06 3.36 7.9 4.15 0.3 0.13 0.49 0.16 0.66 0.16q0.26 0 0.56-0.12 0.31-0.13 0.65-0.39c0.43-0.33 0.82-0.82 0.92-0.97 2.42-3.62 4.95-7.05 6.69-9.35-2.25-0.98-4.9-2.09-7.77-3.34-4.38-1.91-9.25-4.15-13.97-6.82z"/>
					<path id="&lt;Path&gt;" class="s25" d="m250.04 409.89l-18.03-0.89c24.36 11.43 51.54 20.38 83.94 25.63 6.29 0.99 12.86 1.82 19.58 2.48-1.24-5.02-2.29-9.78-3.07-13.94q-0.47-2.49-0.89-4.93c-3.87-22.38-4.96-41.23-5.19-46.16-7.23-8.37-12.75-17.16-15.78-22.52q-0.29 0.17-0.61 0.42-0.72 0.58-1.47 1.53c-0.99 1.26-1.96 2.99-2.8 4.92-1.68 3.85-2.85 8.46-3.53 11.76-0.38 1.9-1.46 3.5-2.85 4.58-1.4 1.08-3.13 1.68-4.95 1.69q-1.25 0-2.49-0.4c-11.67-3.79-24.36-10.38-36.32-18.3-7.77-5.16-15.22-10.88-21.84-16.78l6.82 15.7q0.19 0.15 0.37 0.3c2.49 1.96 5.38 4.11 7.98 5.9 1.72 1.18 3.32 2.21 4.53 2.89 4.44 2.52 9.14 4.68 13.44 6.56 4.3 1.87 8.2 3.45 11.16 4.87 1.13 0.54 1.76 1.75 1.58 2.98l-0.02 0.12q-0.02 0.11-0.05 0.35-0.07 0.48-0.19 1.39c-0.15 1.21-0.36 2.96-0.57 5.09-0.41 4.26-0.82 10.05-0.82 16.12q0 2.18 0.07 4.38 0.03 0.62 0.04 1.49 0.01 0.86-0.1 1.85c-0.08 0.66-0.21 1.36-0.5 2.1-0.19 0.48-0.45 1-0.84 1.49-0.51 0.66-1.3 1.26-2.22 1.56q-0.79 0.25-1.6 0.25-1.16-0.02-2.26-0.41c-4.06-1.39-9.54-3.36-15.09-5.53-1.42 0.91-3.13 1.47-4.97 1.47q-0.23 0-0.46-0.01z"/>
					<path id="&lt;Path&gt;" class="s23" d="m338.71 349.42q-1.39 0.21-2.79 0.37c-2.89 0.34-5.78 0.53-8.56 0.61q-1.22 0.04-2.41 0.05-3.06 0-5.73-0.24c2.46 4.01 5.79 8.96 9.73 13.89 2.63-5.16 5.91-9.8 8.79-13.47q0.49-0.63 0.97-1.21z"/>
					<path id="&lt;Path&gt;" class="s25" d="m405.4 327.31c-9.28 3.5-19.94 6.83-29.79 9.81-8.22 2.49-15.87 4.73-21.61 6.58q-0.05 0.12-0.09 0.25-0.06 0-0.12 0.01 0.05 0.02 0.09 0.05 0.93 0.5 1.77 1.13c2.29 1.7 4.09 4 5.51 6.65 2.26 4.23 3.61 9.4 4.12 14.98 1.62-0.37 3.6-0.84 5.68-1.37 5.14-1.3 8.7-2.29 13.29-3.88 4.59-1.59 10.24-3.8 19.37-7.52 7.1-2.89 15.78-7.11 24.83-11.87 5.7-2.99 11.55-6.19 17.28-9.41q-0.69-1.59-1.26-3.15c-2.12-6-2.83-11.69-2.83-16.63q0.01-0.59 0.03-1.17c-10.91 5.15-23.66 10.79-36.27 15.54z"/>
					<path id="&lt;Path&gt;" class="s25" d="m225.94 321c3.42 4.03 7.5 8.18 12.05 12.27 9.67 8.7 21.43 17.13 33.2 23.73 7.84 4.4 15.69 7.99 22.89 10.32q0.16 0.05 0.31 0.05c0.22 0 0.45-0.08 0.6-0.2 0.16-0.13 0.23-0.24 0.26-0.4 0.49-2.36 1.19-5.31 2.17-8.36 0.99-3.05 2.25-6.2 3.95-8.99 1.02-1.68 2.23-3.22 3.69-4.52-18.74-4.96-38.47-12.95-56.29-27.3-7.97-6.43-17.37-15.86-23.46-24.02-2.03-2.73-3.7-5.31-4.83-7.74q-0.34-0.73-0.61-1.45-0.11 0.1-0.23 0.23c-0.8 0.82-2.06 2.74-3.33 6.35-0.64 1.8-1.1 3.31-1.42 4.59q0.02 0.04 0.04 0.08z"/>
					<path id="&lt;Path&gt;" class="s23" d="m646.61 222.11l13.46-5.7 41.27-18.8 31.41-16.34c12.73-7.63 26.18-14.27 37.14-23.99 4.06-4.12 9.72-10.69 8.31-17.11-1.47-4.6-7.04-6.13-11.23-6.2-20.62 0.95-42.01 6.85-62.87 13.86l-51.19 18.05-52.38 20.29c-23.61 9.94-44.89 19.13-67.33 31.57-4.4 2.44-18.96 11.73-22.04 14.03-1.79 1.34-3.95 2.92-6.34 4.67-11.3 8.29-27.92 20.69-36.32 32.18-5.79 7.93-11.19 15.79-14.41 24.05q-0.83 2.54-1.48 5.22c-0.08 0.34-0.17 0.63-0.26 0.97q-0.15 0.51-0.34 1.16-0.38 1.3-0.81 3.22c-0.27 1.25-0.52 2.68-0.72 4.27q0 0.02 0 0.03 0 0 0 0c-0.2 1.65-0.34 3.46-0.34 5.4 0.01 2.83 0.29 5.92 1.03 9.18q0.5 2.26 1.32 4.61c1.76 4.95 4.68 10.19 9.48 15.46 1.98 2.18 4.57 4.13 7.67 5.85q1.92 0.97 3.96 1.76 6.88 2.68 14.12 4.55c11.26 2.42 24.4 3.29 37.04 3.28 14.47 0.01 28.27-1.11 38.04-2.16q7.16-1.37 14.21-3.23c37.55-9.94 64.36-25.55 74.22-34.87 5.88-5.55 7.62-8.1 5.64-12.87-1.85-2.53-5-2.05-7.6-1.99-14.82 6.11-30.8 12.12-46.31 16.83l-1.82-0.46c-0.23-0.73-0.29-1.39-0.11-2.11 32.69-12.56 64.23-26.65 89.82-47.74 3.18-3.25 5.51-8.2 3.51-12.56-2.79-3.46-7.47-3.78-11.48-2.63-17.62 8.85-36.95 16.47-56.23 22.47l-1.2-0.64c-0.59-0.83-0.68-2.02 0.12-2.93 37.57-14.38 72.66-31.63 101.64-56.37 5.4-5.47 13.01-10.28 14.22-18.91 0.03-2.57-1.37-4.96-3.66-6.08q-3.51-1.25-7.32-0.2c-26.34 12.44-53.77 24.81-82.54 34.1-0.7 0.35-1.82-0.25-1.93-1.03-0.1-0.78-0.11-1.71 0.63-2.14z"/>
					<path id="&lt;Compound Path&gt;" fill-rule="evenodd" class="s7" d="m132.29 293.52l74.29 3.66c0.81 0.04 1.53 0.54 1.85 1.28l44.01 101.38q0.19 0.45 0.18 0.85c0.01 0.53-0.22 1.09-0.61 1.49-0.4 0.4-0.88 0.62-1.51 0.63h-0.12 0.01l-52.08-2.57c-0.01-2.3 0.14-4.6 0.4-6.75 0.64-5.12-2.45-8.75-5.8-10.47-0.84-0.44-4.37-0.9-5.17-0.37 0.55-1.04 0.97-2.16 2.32-7.47 0.69-3.66-0.21-8.25-2.4-12.15 0 0-4.9-8.52-11.98-5.21 0.92-3.44 1.34-6.2 1.52-8.21 0.23-2.58-0.2-5.59-1.58-7.73-0.83-1.28-2.28-2.75-4.92-4.14-1.31-0.7-2.7-0.95-4.1-0.95-5.25 0-10.48 3.88-11.11 4-0.74 0.16 2.7-12.47-9.14-16.08-1.21-0.36-2.51-0.31-3.85 0.04l-12.26-28.26q-0.19-0.45-0.18-0.85c-0.01-0.53 0.22-1.08 0.61-1.49 0.4-0.39 0.88-0.62 1.5-0.63h0.12zm75.82 23.01c-1.09 0.45-1.6 1.69-1.15 2.78l19.63 47.51c0.45 1.09 1.69 1.61 2.77 1.16 1.09-0.45 1.61-1.69 1.16-2.78l-19.63-47.52c-0.45-1.08-1.7-1.6-2.78-1.15zm-52.11-15.54c-0.05 1.17 0.85 2.17 2.03 2.22l40.94 1.92c1.38 0.07 2.6 0.93 3.12 2.21l1.69 4.16c0.44 1.09 1.68 1.62 2.77 1.17 1.09-0.44 1.61-1.68 1.17-2.77l-1.69-4.16c-1.14-2.82-3.82-4.71-6.86-4.85l-40.94-1.93c-1.18-0.05-2.17 0.85-2.23 2.03z"/>
					<path id="&lt;Path&gt;" class="s23" d="m187.56 440.15c6.33-1.55 12.48-5.62 16.72-8.7q0.43-0.31 0.84-0.66 1.05-0.88 2-1.96c4.99-5.63 7.95-10.69 11.15-19.43q-0.76-0.57-1.48-1.15l-15.78-0.78q0.02 0.7 0.1 1.32c0.67 4.47 1.87 6.86-0.11 7.8q-0.04 0.02-0.09 0.04-0.16 0.07-0.35 0.13c-1.76 0.54-4.84-1.83-6.76-6.41-2.18-5.23-1.83-13.12-1.78-14.59 0.12-3.46-2.73-7.08-6.92-4.69-1.12 0.63-1.45 2.48-2.36 4.76-0.49 1.23-2.06 6.13-2.88 11.49-0.83 5.36-0.91 11.17-2.09 12.28-4.58 4.28-5.21-4.5-4.17-13.54 0.54-4.64 1.77-8.42 3.5-13.61 1.34-4.04 3.72-11.7 3.83-14.64 0.22-5.77 0.52-11.35-4.95-12.1-5.46-0.76-14.2 16.44-16.58 24.58-0.51 1.76-3.05 9.42-4.92 17.13-1.02 4.19-3.33 8.37-5.37 7.28-0.99-0.52-0.7-9.51 1.36-18.37 2.2-9.44 6.25-18.83 7.28-20.65 2.41-4.23 5.74-8.32 7.47-11.6 1.81-3.44 2.61-5.66 2.65-7.44 0.09-4.03 0.62-9.24-3.94-11.65-3.33-1.76-8.24 4.05-11.47 7.76-2.63 3.02-6.46 6.55-10.41 13.63-1.16 2.08-4.82 9.74-6.12 17.63-1.42 8.59-0.91 16.72-4.9 16.94-2.06 0.11-2.45-6.5-1.35-14.58 1.36-10.05 3.93-20.79 6.41-24.04 2.43-3.18 9.29-13.85 9.74-15.12 2.27-6.5 3.09-11.46-1.14-14.04-4.24-2.57-12.83 8.11-21.58 17.96-3.98 4.53-11.43 33.67-4.59 54.02 6.58 19.53 22.39 26.54 28.01 28.7 11.46 4.4 24.89 10.25 41.03 6.3z"/>
					<path id="&lt;Compound Path&gt;" fill-rule="evenodd" class="s22" d="m452.69 268.47l-1.22 8.48c-3.1 5.7-5.48 12.06-7.13 18.96-0.01 0.03-0.07 0.27-0.16 0.59-0.16 0.55-0.41 1.39-0.68 2.42-0.33 1.26-0.7 2.82-1.01 4.62-11.58 5.54-25.73 11.92-39.59 17.14-9 3.39-19.54 6.7-29.35 9.66-9.81 2.97-18.86 5.6-25.04 7.72-1.9 0.65-3.42 1.75-4.59 2.94q-0.15 0.16-0.29 0.32-2.5 0.58-5.22 0.99c-4.51 0.7-9.29 1.05-13.46 1.05-2.62 0-5-0.14-6.86-0.41-0.93-0.13-1.73-0.29-2.34-0.46-0.61-0.17-1.02-0.36-1.15-0.44l-0.11 0.19q-0.03-0.03-0.06-0.07c-0.55-0.61-1.12-1.07-1.71-1.48-0.88-0.62-1.79-1.11-2.66-1.52-0.88-0.41-1.67-0.72-2.48-0.93-18.33-4.78-37.33-12.44-54.37-26.16-5.68-4.57-12.38-11.03-17.7-17.16-2.67-3.06-4.99-6.05-6.65-8.62-0.83-1.28-1.5-2.46-1.96-3.45q-0.23-0.49-0.38-0.9c-0.08-8.89 1.39-16.99 1.83-19.12 0.79-3.93 1.85-9.62 3.27-14.35 13.04-43.38 52.9-82.03 95.15-95.47q-0.01 0.69 0 1.44c0.07 5.38 0.64 11.04 1.01 13.73-3.71-0.19-6.64-0.73-7.32-0.9-3.87-0.93-8.11-2.82-8.54 0.71-0.23 1.86 3.33 3.72 6.39 4.82 8.12 2.95 23.09 3.61 31.98-4.22 3.02-2.59 7.26-6.25 4.82-8.08-2.3-1.71-4.25 0.31-5.9 1.87-0.93 0.87-6.18 4.12-12.14 5.28-0.52-3.95-1.59-10.3-1.56-16.06q0-0.53 0-1.21 11.73-3.16 24.1-4.71 1.33-0.17 2.78-0.32 1.15 1.22 2.45 2.5c11.89 11.67 33.26 27.17 67.51 40.16 9.64 3.65 20.09 6.72 30.54 9.26l-0.07 0.48zm-183.34-77.24l0.5 1c3.2-1 6.3-3.1 10.1-1.9 1.8 0.9 4.4 1.7 5 4.1 0.6 0.2 0.8-0.5 1.2-0.8-0.2-2.1-1.2-3.9-2.9-5.5-4.3-4.1-10.8-1-13.9 3.1zm-11.86 61.73c0.8 4.82 1.97 9.52 3.96 13.87 10.6 5.9 26.5 7.5 37.4 1.5 2.7-5.7 4.1-12 4.8-18.5 0.8-11.5 1.5-24.2-5-33.4-5.9-9-17.9-11.7-27.1-7.2-13.29 7.73-14.68 22.74-14.71 36.67 0 0.85 0.41 5.56 0.65 7.06zm107.66 36.47c-2.2-5.6-8.1-8.5-13.7-8.9-8.8-2.3-15.9-9-24-13.2-6.1-2-11.9 1-16.6 4.8-9.1 9.4-27.5 4-30.9 19.5 3.1 6.6 9.9 0.7 15.1 1.9l11 13.4c5.5 6.4 7.7 14.6 14.2 20.2 1.8 0.4 4 1.2 5.8 0.2 12.3-9 25.5-15.6 37.4-25.7 3.1-3 3.3-8.4 1.7-12.2zm44.77-20.4c3.42-12.49 6.3-27.37 1.25-39.8q-0.41-1.01-0.99-1.93c-5.99-9.35-17.59-13.56-28.53-10.07-12.3 4.1-17.8 17.4-19.2 29.2-1 10.2-0.5 20.9 2.4 30 11.4 7.1 27.5 9.1 40.4 3.9l1.97-4.11q1.67-3.47 2.7-7.19zm8.53-62.4c-1-4-2.7-7.7-6-10.8-4.8-4.1-12.5-2.9-16.6 1.7-0.5 0.7-2.1 1.9-0.5 2.6 3.5-2.7 8.2-3.9 12.7-2.6 4.2 1.6 6.6 6 8.7 9.6 0.6-0.1 1.4 0.3 1.7-0.5z"/>
					<path id="&lt;Path&gt;" class="s22" d="m526.57 206q-0.84 0.02-1.73 0.02-3.19 0-6.97-0.2l-2.38 3.03-16.5 20.95c6.32-4.88 12.83-9.5 19.52-13.77q0.23-0.14 0.46-0.28c2.51-1.68 4.78-3.11 6.78-4.23q1.31-0.74 2.49-1.3 0.58-0.33 1.16-0.66c-0.81-1.13-1.78-2.34-2.83-3.56z"/>
					<path id="&lt;Path&gt;" class="s22" d="m494.65 203.41q-5.46-0.79-11.21-1.81l-2.99 20.44z"/>
					<path id="&lt;Path&gt;" class="s7" d="m511.03 205.34q-2.32-0.2-4.77-0.46-2.51-0.27-5.15-0.6l-29.44 38.63 6.19-42.36q-4.68-0.92-9.43-1.99l-10.13 70.71 0.24-0.25q2.22-3.08 4.7-6.05c4.37-5.22 9.11-10.14 14.07-14.81l33.72-42.82z"/>
					<path id="&lt;Path&gt;" class="s23" d="m299.47 234.23c0 3.59-2.5 6.5-5.58 6.5-3.08 0-5.57-2.91-5.57-6.5 0-3.59 2.49-6.5 5.57-6.5 3.08 0 5.58 2.91 5.58 6.5z"/>
					<path id="&lt;Path&gt;" class="s23" d="m408.01 244.65c0 4.07-2.73 7.36-6.09 7.36-3.36 0-6.08-3.29-6.08-7.36 0-4.06 2.72-7.36 6.08-7.36 3.36 0 6.09 3.3 6.09 7.36z"/>
				</g>
				<path id="&lt;Path&gt;" class="s20" d="m437.4 133.91c1.41 7.88-4.05 16.48-12.61 19.82-18.42 7.18-31.13-10.47-20.84-24.76 3.3-4.59 8.21-9.4 11.42-13.68l-3.16-0.66c1.69-0.53 6.45-2.47 7.87-2.17 2.28 0.5 2.31 1.9 1.95 2.7l-2.56 5.67 0.8-0.06q1.99-0.14 3.88 0.29l27.07 6.2-13.77 4.03-14.06-3.63q-0.69-0.18-1.41-0.26c-0.97-0.11-2.62-0.26-3.45-0.13-7.38 1.17-11.83 8.53-9 14.12 5.88 11.65 25 0.61 17.57-10.16z"/>
			</g>
		</g>
	</g>
</svg>